<svg width="32" height="32" viewBox="0 0 32 32" fill="none" xmlns="http://www.w3.org/2000/svg">
<g clip-path="url(#clip0_3333_64893)">
<mask id="mask0_3333_64893" style="mask-type:luminance" maskUnits="userSpaceOnUse" x="0" y="0" width="32" height="32">
<path d="M32 0H0V32H32V0Z" fill="white"/>
</mask>
<g mask="url(#mask0_3333_64893)">
<mask id="mask1_3333_64893" style="mask-type:luminance" maskUnits="userSpaceOnUse" x="1" y="1" width="30" height="30">
<path d="M31 1H1V31H31V1Z" fill="white"/>
</mask>
<g mask="url(#mask1_3333_64893)">
<path d="M17.404 20.683L12.72 16L17.402 11.318C17.583 11.1372 17.7266 10.9224 17.8246 10.6861C17.9226 10.4497 17.973 10.1964 17.973 9.9405C17.973 9.68463 17.9226 9.43128 17.8246 9.19492C17.7266 8.95855 17.583 8.74382 17.402 8.563L13.412 4.572C13.1395 4.29934 12.7923 4.11363 12.4143 4.03838C12.0363 3.96312 11.6445 4.0017 11.2884 4.14923C10.9323 4.29676 10.628 4.54661 10.4139 4.86717C10.1999 5.18772 10.0858 5.56456 10.086 5.95V13.367L5.88599 9.167C5.67772 8.98163 5.40639 8.88302 5.1277 8.89144C4.84901 8.89985 4.58412 9.01464 4.38742 9.21224C4.19071 9.40984 4.07713 9.67525 4.06998 9.95397C4.06283 10.2327 4.16267 10.5036 4.34898 10.711L9.63498 16L4.34898 21.289C4.24767 21.3903 4.1673 21.5106 4.11247 21.643C4.05764 21.7753 4.02942 21.9172 4.02942 22.0605C4.02942 22.2038 4.05764 22.3457 4.11247 22.478C4.1673 22.6104 4.24767 22.7307 4.34898 22.832C4.5536 23.0366 4.83112 23.1516 5.12049 23.1516C5.26377 23.1516 5.40564 23.1233 5.53802 23.0685C5.67039 23.0137 5.79067 22.9333 5.89198 22.832L10.092 18.632V26.049C10.0917 26.4344 10.2057 26.8111 10.4197 27.1316C10.6337 27.4521 10.938 27.7019 11.294 27.8494C11.6501 27.9968 12.0418 28.0353 12.4198 27.9599C12.7977 27.8846 13.1447 27.6987 13.417 27.426L17.408 23.435C17.589 23.2543 17.7326 23.0396 17.8305 22.8033C17.9285 22.5671 17.9789 22.3138 17.9789 22.058C17.9789 21.8022 17.9285 21.5489 17.8305 21.3127C17.7326 21.0764 17.589 20.8617 17.408 20.681M12.268 6.514L15.694 9.94L12.268 13.366V6.514ZM12.268 25.486V18.634L12.558 18.924L15.694 22.06L12.268 25.486Z" fill="#4C4C4C"/>
<path d="M20.511 21.682C20.3363 21.6821 20.1656 21.6294 20.0214 21.5307C19.8772 21.432 19.7662 21.292 19.703 21.1291C19.6398 20.9662 19.6274 20.7879 19.6674 20.6178C19.7074 20.4477 19.7979 20.2937 19.927 20.176C20.506 19.6455 20.9684 19.0004 21.2847 18.2817C21.6011 17.5629 21.7644 16.7863 21.7644 16.001C21.7644 15.2157 21.6011 14.439 21.2847 13.7203C20.9684 13.0015 20.506 12.3564 19.927 11.826C19.843 11.7493 19.7748 11.6568 19.7265 11.5538C19.6782 11.4508 19.6507 11.3392 19.6455 11.2256C19.6403 11.1119 19.6575 10.9984 19.6962 10.8914C19.7349 10.7844 19.7943 10.686 19.871 10.602C19.9477 10.5179 20.0402 10.4498 20.1432 10.4015C20.2462 10.3532 20.3578 10.3257 20.4714 10.3205C20.5851 10.3153 20.6986 10.3325 20.8056 10.3712C20.9126 10.4099 21.011 10.4693 21.095 10.546C21.8513 11.2392 22.4552 12.0822 22.8683 13.0212C23.2814 13.9603 23.4947 14.975 23.4947 16.001C23.4947 17.0269 23.2814 18.0416 22.8683 18.9807C22.4552 19.9198 21.8513 20.7627 21.095 21.456C20.9353 21.6015 20.7271 21.6821 20.511 21.682Z" fill="#4C4C4C" stroke="#4C4C4C" stroke-width="0.2"/>
<path d="M23.927 24.745C23.7535 24.7457 23.5837 24.6943 23.4398 24.5975C23.2958 24.5006 23.1843 24.3627 23.1196 24.2017C23.055 24.0407 23.0402 23.864 23.0771 23.6945C23.1141 23.525 23.2011 23.3705 23.327 23.251C24.3082 22.3155 25.0892 21.1906 25.6229 19.9444C26.1566 18.6982 26.4318 17.3567 26.4318 16.001C26.4318 14.6453 26.1566 13.3038 25.6229 12.0576C25.0892 10.8114 24.3082 9.68646 23.327 8.75099C23.1601 8.59186 23.0634 8.37298 23.0579 8.1425C23.0525 7.91202 23.1388 7.68881 23.298 7.52199C23.4571 7.35517 23.676 7.2584 23.9065 7.25296C24.1369 7.24752 24.3601 7.33386 24.527 7.49299C25.6774 8.5914 26.5935 9.91144 27.22 11.3735C27.8464 12.8356 28.1703 14.4094 28.172 16C28.1795 17.592 27.8599 19.1686 27.2329 20.632C26.6059 22.0954 25.6848 23.4143 24.527 24.507C24.3652 24.6609 24.1502 24.7462 23.927 24.745Z" fill="#4C4C4C" stroke="#4C4C4C" stroke-width="0.2"/>
</g>
</g>
</g>
<defs>
<clipPath id="clip0_3333_64893">
<rect width="32" height="32" fill="white"/>
</clipPath>
</defs>
</svg>
