<svg width="32" height="32" viewBox="0 0 32 32" fill="none" xmlns="http://www.w3.org/2000/svg">
<g clip-path="url(#clip0_44_641)">
<path d="M16 22.857C12.5405 22.662 9.23499 21.3597 6.57294 19.1415C5.14241 18.0457 3.8332 16.8002 2.66669 15.4267V15.4176C3.83256 14.049 5.13956 12.807 6.56643 11.7132C9.22936 9.49689 12.5345 8.19555 15.9935 8.00027C19.4533 8.19574 22.7592 9.49702 25.4232 11.7132C26.853 12.8084 28.1614 14.0534 29.3268 15.4267V15.4345C28.1622 16.8042 26.856 18.047 25.4297 19.1415C22.7663 21.3592 19.4603 22.6615 16 22.857ZM16 10.4358C14.691 10.4212 13.4293 10.9267 12.4922 11.8408C11.5551 12.7548 11.0192 14.0032 11.0013 15.3121C11.0196 16.6207 11.5564 17.8686 12.4935 18.7822C13.4306 19.6957 14.6914 20.2001 16 20.1852C17.3089 20.2001 18.5703 19.6957 19.5078 18.7822C20.4453 17.8687 20.9824 16.6209 21.0013 15.3121C20.9827 14.0029 20.4453 12.7548 19.5078 11.8408C18.5703 10.9268 17.3092 10.4212 16 10.4358ZM16 16.9358C15.5641 16.9404 15.1442 16.7721 14.8321 16.4677C14.5199 16.1633 14.341 15.748 14.3347 15.3121C14.3403 14.8757 14.5185 14.4595 14.8307 14.1546C15.143 13.8496 15.5636 13.6805 16 13.6852C16.4368 13.6802 16.8579 13.849 17.1706 14.1539C17.4833 14.4589 17.662 14.8754 17.668 15.3121C17.6613 15.7484 17.4819 16.164 17.1693 16.4684C16.8567 16.7727 16.4363 16.9408 16 16.9358Z" fill="#333333"/>
</g>
<defs>
<clipPath id="clip0_44_641">
<rect width="32" height="32" fill="white"/>
</clipPath>
</defs>
</svg>
