<svg width="32" height="32" viewBox="0 0 32 32" fill="none" xmlns="http://www.w3.org/2000/svg">
<g clip-path="url(#clip0_44_844)">
<path d="M27.953 13.639C27.8968 13.4671 27.7937 13.3144 27.6553 13.198C27.517 13.0815 27.3489 13.006 27.17 12.98L20.053 11.946L16.869 5.496C16.7799 5.34462 16.6528 5.21914 16.5003 5.13195C16.3478 5.04477 16.1751 4.99891 15.9995 4.99891C15.8238 4.99891 15.6512 5.04477 15.4987 5.13195C15.3462 5.21914 15.2191 5.34462 15.13 5.496L11.947 11.946L4.82998 12.979C4.65094 13.005 4.48275 13.0806 4.34441 13.1972C4.20607 13.3138 4.10311 13.4668 4.04714 13.6389C3.99118 13.8109 3.98445 13.9952 4.02772 14.1709C4.07098 14.3465 4.16252 14.5066 4.29198 14.633L9.44698 19.654L8.22698 26.742C8.19696 26.9202 8.21727 27.1032 8.28561 27.2705C8.35396 27.4378 8.46763 27.5827 8.61384 27.6889C8.76005 27.7951 8.933 27.8584 9.11322 27.8717C9.29345 27.8849 9.4738 27.8477 9.63398 27.764L16 24.417L22.365 27.763C22.5251 27.8471 22.7056 27.8847 22.886 27.8716C23.0664 27.8585 23.2395 27.7952 23.3859 27.6889C23.5322 27.5826 23.6459 27.4375 23.7141 27.27C23.7824 27.1025 23.8024 26.9193 23.772 26.741L22.556 19.653L27.707 14.633C27.8365 14.5069 27.928 14.347 27.9713 14.1715C28.0146 13.996 28.0079 13.8119 27.952 13.64L27.953 13.639Z" fill="#333333"/>
</g>
<defs>
<clipPath id="clip0_44_844">
<rect width="32" height="32" fill="white"/>
</clipPath>
</defs>
</svg>
