<svg width="32" height="32" viewBox="0 0 32 32" fill="none" xmlns="http://www.w3.org/2000/svg">
<g clip-path="url(#clip0_86_1262)">
<path d="M16 28C15.7679 28 15.5714 27.9167 15.4107 27.75L7.05357 19.3889C6.96429 19.3148 6.84152 19.1944 6.68527 19.0278C6.52902 18.8611 6.28125 18.5579 5.94196 18.1181C5.60268 17.6782 5.29911 17.2269 5.03125 16.7639C4.76339 16.3009 4.52455 15.7407 4.31473 15.0833C4.10491 14.4259 4 13.787 4 13.1667C4 11.1296 4.56696 9.53704 5.70089 8.38889C6.83482 7.24074 8.40179 6.66667 10.4018 6.66667C10.9554 6.66667 11.5201 6.7662 12.096 6.96528C12.6719 7.16435 13.2076 7.43287 13.7031 7.77083C14.1987 8.1088 14.625 8.42593 14.9821 8.72222C15.3393 9.01852 15.6786 9.33333 16 9.66667C16.3214 9.33333 16.6607 9.01852 17.0179 8.72222C17.375 8.42593 17.8013 8.1088 18.2969 7.77083C18.7924 7.43287 19.3281 7.16435 19.904 6.96528C20.4799 6.7662 21.0446 6.66667 21.5982 6.66667C23.5982 6.66667 25.1652 7.24074 26.2991 8.38889C27.433 9.53704 28 11.1296 28 13.1667C28 15.213 26.9777 17.2963 24.933 19.4167L16.5893 27.75C16.4286 27.9167 16.2321 28 16 28Z" fill="#333333"/>
</g>
<defs>
<clipPath id="clip0_86_1262">
<rect width="32" height="32" fill="white"/>
</clipPath>
</defs>
</svg>
