<svg width="32" height="32" viewBox="0 0 32 32" fill="none" xmlns="http://www.w3.org/2000/svg">
<g clip-path="url(#clip0_3333_64890)">
<mask id="mask0_3333_64890" style="mask-type:luminance" maskUnits="userSpaceOnUse" x="0" y="0" width="32" height="32">
<path d="M32 0H0V32H32V0Z" fill="white"/>
</mask>
<g mask="url(#mask0_3333_64890)">
<mask id="mask1_3333_64890" style="mask-type:luminance" maskUnits="userSpaceOnUse" x="1" y="1" width="30" height="30">
<path d="M31 1H1V31H31V1Z" fill="white"/>
</mask>
<g mask="url(#mask1_3333_64890)">
<path d="M26.1996 28H20.1996C20.042 28 19.8862 27.9685 19.7406 27.9082C19.595 27.8479 19.4634 27.7599 19.3519 27.6484C19.2405 27.537 19.1515 27.4054 19.0912 27.2598C19.0309 27.1142 19.0004 26.9584 19.0004 26.8008V22.5996C19.0004 22.2813 19.1269 21.977 19.3519 21.752C19.577 21.5269 19.8813 21.4004 20.1996 21.4004H22.0004V21.1875L27.3998 26.5879V26.8008C27.3998 26.9584 27.3693 27.1142 27.309 27.2598C27.2487 27.4054 27.1596 27.537 27.0482 27.6484C26.9368 27.7599 26.8051 27.8479 26.6595 27.9082C26.514 27.9685 26.3572 28 26.1996 28ZM11.8002 28H5.80017C5.64258 28 5.48678 27.9685 5.34119 27.9082C5.1956 27.8479 5.06297 27.7599 4.95154 27.6484C4.84011 27.537 4.75208 27.4054 4.69177 27.2598C4.63147 27.1142 4.59998 26.9584 4.59998 26.8008V22.5996C4.59998 22.2813 4.72649 21.977 4.95154 21.752C5.17658 21.5269 5.48191 21.4004 5.80017 21.4004H7.59998V16.3008C7.59998 15.9825 7.72649 15.6762 7.95154 15.4512C8.17658 15.2261 8.48191 15.0996 8.80017 15.0996H14.8002V13.9805L18.3148 17.4961H10.0033V21.3965H11.8031C11.9607 21.3965 12.1165 21.428 12.2621 21.4883C12.4077 21.5486 12.5403 21.6366 12.6517 21.748C12.7632 21.8595 12.8512 21.9931 12.9115 22.1387C12.9718 22.2843 13.0033 22.4401 13.0033 22.5977V26.7969C13.0037 26.955 12.9728 27.1117 12.9125 27.2578C12.8522 27.4039 12.7635 27.5366 12.6517 27.6484C12.5399 27.7602 12.4072 27.8498 12.2611 27.9102C12.115 27.9705 11.9583 28.0004 11.8002 28ZM27.3617 22.3086L26.4926 21.4414C26.7028 21.4932 26.8957 21.6012 27.0492 21.7539C27.2026 21.9067 27.3109 22.0986 27.3636 22.3086H27.3617ZM24.3959 19.3438L20.1605 15.1055H23.1976C23.5159 15.1055 23.8212 15.232 24.0463 15.457C24.2713 15.6821 24.3978 15.9884 24.3978 16.3066V19.3516L24.3959 19.3438ZM17.1957 12.1445L11.7963 6.74414V5.19922C11.7963 4.88096 11.9228 4.57465 12.1478 4.34961C12.3729 4.12457 12.6782 3.99805 12.9965 3.99805H18.9965C19.3147 3.99805 19.6191 4.12457 19.8441 4.34961C20.0692 4.57465 20.1957 4.88096 20.1957 5.19922V9.39844C20.1957 9.55602 20.1652 9.71183 20.1049 9.85742C20.0446 10.003 19.9555 10.1366 19.8441 10.248C19.7327 10.3595 19.601 10.4475 19.4554 10.5078C19.3099 10.5681 19.154 10.5996 18.9965 10.5996H17.1957V12.1406V12.1445Z" fill="#4C4C4C"/>
</g>
<path d="M6.49902 6.5L26.276 26.277" stroke="#4C4C4C" stroke-width="2.5" stroke-linecap="round"/>
</g>
</g>
<defs>
<clipPath id="clip0_3333_64890">
<rect width="32" height="32" fill="white"/>
</clipPath>
</defs>
</svg>
