<svg width="32" height="32" viewBox="0 0 32 32" fill="none" xmlns="http://www.w3.org/2000/svg">
<g clip-path="url(#clip0_3333_64885)">
<mask id="mask0_3333_64885" style="mask-type:luminance" maskUnits="userSpaceOnUse" x="0" y="0" width="32" height="32">
<path d="M32 0H0V32H32V0Z" fill="white"/>
</mask>
<g mask="url(#mask0_3333_64885)">
<mask id="mask1_3333_64885" style="mask-type:luminance" maskUnits="userSpaceOnUse" x="1" y="1" width="30" height="30">
<path d="M31 1H1V31H31V1Z" fill="white"/>
</mask>
<g mask="url(#mask1_3333_64885)">
<path d="M15.6511 28.0015C15.0941 28.0015 14.5595 27.7801 14.1657 27.3863C13.7719 26.9924 13.5515 26.4588 13.5515 25.9019C13.5512 25.5358 13.6474 25.1771 13.8317 24.8609C14.0161 24.5446 14.2816 24.2813 14.6003 24.1011V20.7027H11.9001C10.7884 20.7027 9.72253 20.2609 8.93525 19.4761C8.14797 18.6913 7.70334 17.6268 7.6999 16.5152V13.0445C7.29955 12.8133 6.98716 12.4559 6.81025 12.0288C6.63334 11.6017 6.60173 11.1277 6.72138 10.6812C6.84103 10.2347 7.10463 9.84151 7.47138 9.56009C7.83813 9.27867 8.28742 9.12454 8.7497 9.12454C9.21198 9.12454 9.66127 9.27867 10.028 9.56009C10.3948 9.84151 10.6594 10.2347 10.779 10.6812C10.8986 11.1277 10.867 11.6017 10.6901 12.0288C10.5132 12.4559 10.2008 12.8133 9.80048 13.0445V16.5152C9.80048 17.0721 10.0209 17.6057 10.4147 17.9995C10.8086 18.3934 11.3431 18.6148 11.9001 18.6148H14.6003V13.8843L16.6999 15.9859V18.6148H19.3268L21.071 20.3589C20.5441 20.5881 19.9756 20.7056 19.4011 20.7046H16.7009V24.1031C17.0194 24.2833 17.2843 24.5465 17.4685 24.8628C17.6526 25.1791 17.7492 25.5379 17.7487 25.9038C17.7482 26.4601 17.5278 26.9929 17.1345 27.3863C16.7411 27.7796 16.2073 28.001 15.6511 28.0015ZM23.2224 18.2574L21.5026 16.5386V13.3394H20.4548V9.15189H24.655V13.3394H23.6071V16.521C23.6088 17.1219 23.4789 17.7161 23.2263 18.2613L23.2224 18.2574ZM16.7038 11.7398L14.6042 9.64017V8.53275H13.4958L13.0046 8.04056L15.652 4.0015L18.6218 8.53275H16.7058V11.7417L16.7038 11.7398Z" fill="#4C4C4C"/>
</g>
<path d="M6.49902 6.5L25.599 25.6" stroke="#4C4C4C" stroke-width="2.5" stroke-linecap="round"/>
</g>
</g>
<defs>
<clipPath id="clip0_3333_64885">
<rect width="32" height="32" fill="white"/>
</clipPath>
</defs>
</svg>
