<svg width="32" height="32" viewBox="0 0 32 32" fill="none" xmlns="http://www.w3.org/2000/svg">
<g clip-path="url(#clip0_3333_64897)">
<mask id="mask0_3333_64897" style="mask-type:luminance" maskUnits="userSpaceOnUse" x="0" y="0" width="32" height="32">
<path d="M32 0H0V32H32V0Z" fill="white"/>
</mask>
<g mask="url(#mask0_3333_64897)">
<mask id="mask1_3333_64897" style="mask-type:luminance" maskUnits="userSpaceOnUse" x="1" y="1" width="30" height="30">
<path d="M31 1H1V31H31V1Z" fill="white"/>
</mask>
<g mask="url(#mask1_3333_64897)">
<path d="M17.314 23.872C17.0718 23.8722 16.8353 23.7991 16.6355 23.6623C16.4356 23.5255 16.2819 23.3315 16.1943 23.1057C16.1068 22.8799 16.0897 22.633 16.1451 22.3972C16.2005 22.1615 16.326 21.9481 16.505 21.785C17.3074 21.05 17.9482 20.156 18.3865 19.16C18.8248 18.164 19.0512 17.0877 19.0512 15.9995C19.0512 14.9113 18.8248 13.835 18.3865 12.839C17.9482 11.843 17.3074 10.9491 16.505 10.214C16.3886 10.1078 16.2942 9.97963 16.2273 9.83693C16.1604 9.69423 16.1223 9.53974 16.1151 9.3823C16.1079 9.22486 16.1318 9.06754 16.1854 8.91933C16.239 8.77112 16.3213 8.63492 16.4275 8.5185C16.5337 8.40209 16.6619 8.30773 16.8046 8.24083C16.9473 8.17393 17.1018 8.1358 17.2592 8.1286C17.4166 8.12141 17.574 8.14529 17.7222 8.19889C17.8704 8.25249 18.0066 8.33476 18.123 8.441C19.1718 9.40112 20.0093 10.569 20.5823 11.8704C21.1553 13.1717 21.4512 14.5781 21.4512 16C21.4512 17.4219 21.1553 18.8283 20.5823 20.1296C20.0093 21.431 19.1718 22.5989 18.123 23.559C17.9018 23.7606 17.6133 23.8722 17.314 23.872Z" fill="#4C4C4C"/>
<path d="M22.051 28.118C21.811 28.1181 21.5765 28.0462 21.3778 27.9117C21.179 27.7771 21.0252 27.5861 20.9362 27.3632C20.8471 27.1403 20.827 26.8959 20.8783 26.6614C20.9296 26.427 21.05 26.2133 21.224 26.048C22.5849 24.7517 23.6683 23.1925 24.4086 21.4649C25.1488 19.7374 25.5305 17.8775 25.5305 15.998C25.5305 14.1185 25.1488 12.2586 24.4086 10.5311C23.6683 8.80354 22.5849 7.24433 21.224 5.948C21.1097 5.83946 21.0179 5.70947 20.9538 5.56545C20.8897 5.42143 20.8546 5.26619 20.8506 5.10861C20.8465 4.95103 20.8735 4.79419 20.93 4.64704C20.9865 4.49989 21.0715 4.36532 21.18 4.251C21.2886 4.13668 21.4186 4.04487 21.5626 3.98079C21.7066 3.91671 21.8618 3.88163 22.0194 3.87754C22.177 3.87345 22.3338 3.90045 22.481 3.95697C22.6281 4.0135 22.7627 4.09846 22.877 4.207C24.4713 5.72899 25.7408 7.55813 26.6089 9.5841C27.477 11.6101 27.9257 13.7909 27.928 15.995C27.9387 18.2011 27.4958 20.3858 26.6269 22.4136C25.758 24.4414 24.4817 26.269 22.877 27.783C22.6541 27.9948 22.3585 28.1129 22.051 28.113" fill="#4C4C4C"/>
<path d="M14.625 16C14.625 15.7242 14.5707 15.4512 14.4651 15.1964C14.3596 14.9416 14.2049 14.7101 14.0099 14.5151C13.8149 14.3201 13.5834 14.1654 13.3286 14.0599C13.0738 13.9543 12.8008 13.9 12.525 13.9V8.8L6.52499 13.6H4.12499C3.80673 13.6 3.5015 13.7264 3.27646 13.9515C3.05142 14.1765 2.92499 14.4817 2.92499 14.8V17.2C2.92499 17.5183 3.05142 17.8235 3.27646 18.0485C3.5015 18.2736 3.80673 18.4 4.12499 18.4H6.52499L12.525 23.2V18.1C13.0819 18.1 13.6161 17.8788 14.0099 17.4849C14.4037 17.0911 14.625 16.557 14.625 16Z" fill="#4C4C4C"/>
</g>
</g>
</g>
<defs>
<clipPath id="clip0_3333_64897">
<rect width="32" height="32" fill="white"/>
</clipPath>
</defs>
</svg>
