<svg width="32" height="32" viewBox="0 0 32 32" fill="none" xmlns="http://www.w3.org/2000/svg"><path d="M9.520 11.203 L 6.533 13.596 5.253 13.598 C 4.522 13.600,3.886 13.625,3.770 13.657 C 3.509 13.729,3.158 14.046,3.033 14.320 C 2.946 14.510,2.936 14.695,2.936 16.000 C 2.936 17.305,2.946 17.490,3.033 17.680 C 3.158 17.954,3.509 18.271,3.770 18.343 C 3.886 18.375,4.522 18.400,5.253 18.402 L 6.533 18.404 9.520 20.797 L 12.507 23.189 12.521 20.642 L 12.534 18.095 12.823 18.065 C 13.816 17.963,14.613 17.043,14.613 16.000 C 14.613 14.965,13.813 14.037,12.833 13.936 L 12.534 13.905 12.521 11.358 L 12.507 8.811 9.520 11.203 M17.360 11.284 C 16.996 11.472,16.640 11.945,16.640 12.240 C 16.640 12.552,16.886 12.847,18.498 14.467 L 20.130 16.107 18.445 17.800 C 16.668 19.584,16.586 19.689,16.662 20.070 C 16.745 20.487,17.280 20.960,17.668 20.960 C 17.783 20.960,17.953 20.924,18.045 20.880 C 18.138 20.836,18.957 20.057,19.865 19.148 L 21.517 17.496 23.172 19.141 C 24.082 20.046,24.903 20.825,24.997 20.873 C 25.366 21.061,25.767 20.954,26.116 20.573 C 26.388 20.278,26.464 20.038,26.387 19.723 C 26.338 19.519,26.139 19.300,24.634 17.787 L 22.937 16.080 24.636 14.374 C 26.054 12.950,26.346 12.632,26.394 12.455 C 26.471 12.171,26.397 11.918,26.155 11.635 C 25.831 11.256,25.446 11.120,25.083 11.256 C 25.001 11.287,24.171 12.073,23.240 13.002 L 21.546 14.692 19.880 13.031 C 18.963 12.118,18.137 11.332,18.043 11.285 C 17.827 11.178,17.566 11.177,17.360 11.284 " fill="#4C4C4C" stroke="none" fillRule="evenodd"></path></svg>