<svg width="32" height="32" viewBox="0 0 32 32" fill="none" xmlns="http://www.w3.org/2000/svg"><path d="M6.213 5.236 C 5.784 5.396,5.354 5.849,5.225 6.278 C 5.171 6.459,5.171 6.550,5.228 6.757 C 5.290 6.982,5.411 7.128,6.236 7.964 C 6.992 8.730,7.157 8.923,7.089 8.961 C 6.630 9.219,5.504 10.130,4.752 10.852 C 4.057 11.521,3.901 11.880,4.060 12.453 C 4.138 12.736,4.544 13.142,4.827 13.220 C 5.416 13.383,5.640 13.284,6.477 12.489 C 7.131 11.867,8.257 10.972,8.691 10.727 L 8.886 10.618 10.155 11.889 L 11.425 13.159 11.006 13.389 C 10.099 13.886,9.316 14.475,8.594 15.206 C 8.034 15.771,7.904 16.122,8.061 16.644 C 8.242 17.250,8.901 17.596,9.527 17.414 C 9.774 17.342,9.899 17.253,10.310 16.857 C 10.913 16.276,11.014 16.192,11.536 15.843 C 11.911 15.591,12.875 15.099,13.147 15.019 C 13.234 14.994,13.530 15.262,14.685 16.419 L 16.116 17.850 15.591 17.883 C 14.273 17.965,13.135 18.531,12.365 19.488 C 12.049 19.879,11.960 20.198,12.055 20.594 C 12.173 21.084,12.663 21.489,13.140 21.492 C 13.545 21.494,13.765 21.384,14.171 20.977 C 14.613 20.532,14.943 20.346,15.423 20.269 C 16.125 20.157,16.682 20.357,17.249 20.924 C 17.452 21.127,17.716 21.338,17.836 21.392 C 18.243 21.577,18.724 21.504,19.074 21.204 L 19.288 21.021 22.111 23.847 C 23.773 25.512,25.020 26.719,25.143 26.783 C 25.415 26.924,25.784 26.925,26.057 26.784 C 26.307 26.655,26.673 26.285,26.800 26.031 C 26.925 25.783,26.918 25.402,26.783 25.143 C 26.649 24.886,7.198 5.436,6.952 5.313 C 6.722 5.198,6.405 5.165,6.213 5.236 M14.960 6.295 C 14.608 6.320,14.061 6.377,13.744 6.423 C 13.111 6.513,11.940 6.762,11.885 6.818 C 11.866 6.837,12.279 7.294,12.802 7.832 L 13.752 8.811 14.196 8.748 C 14.896 8.649,16.427 8.618,17.214 8.688 C 19.007 8.847,20.423 9.247,22.053 10.054 C 23.457 10.749,24.390 11.409,25.592 12.555 C 26.104 13.042,26.268 13.167,26.471 13.224 C 27.388 13.481,28.200 12.666,27.944 11.749 C 27.862 11.457,27.395 10.939,26.563 10.218 C 24.088 8.071,21.070 6.735,17.889 6.377 C 16.970 6.273,15.745 6.239,14.960 6.295 M19.886 14.900 L 22.466 17.479 22.684 17.430 C 22.804 17.403,22.939 17.354,22.985 17.320 C 23.408 17.004,23.573 16.716,23.573 16.294 C 23.573 15.856,23.463 15.658,22.918 15.120 C 21.542 13.761,19.757 12.802,17.850 12.397 C 17.650 12.355,17.446 12.320,17.397 12.320 C 17.347 12.320,18.458 13.471,19.886 14.900 M15.682 23.149 C 15.056 23.279,14.503 23.718,14.223 24.308 C 14.069 24.633,14.053 24.714,14.054 25.173 C 14.054 25.631,14.070 25.714,14.224 26.039 C 14.792 27.240,16.295 27.605,17.353 26.797 C 18.592 25.851,18.291 23.806,16.834 23.261 C 16.484 23.130,16.001 23.083,15.682 23.149 M16.255 24.936 C 16.472 25.089,16.352 25.493,16.089 25.493 C 15.810 25.493,15.678 25.095,15.905 24.936 C 15.970 24.891,16.049 24.853,16.080 24.853 C 16.111 24.853,16.190 24.891,16.255 24.936 " fill="#4C4C4C" stroke="none" fillRule="evenodd"></path></svg>