<svg width="32" height="32" viewBox="0 0 32 32" fill="none" xmlns="http://www.w3.org/2000/svg">
<g clip-path="url(#clip0_3333_64881)">
<mask id="mask0_3333_64881" style="mask-type:luminance" maskUnits="userSpaceOnUse" x="0" y="0" width="32" height="32">
<path d="M32 0H0V32H32V0Z" fill="white"/>
</mask>
<g mask="url(#mask0_3333_64881)">
<mask id="mask1_3333_64881" style="mask-type:luminance" maskUnits="userSpaceOnUse" x="1" y="1" width="30" height="30">
<path d="M31 1H1V31H31V1Z" fill="white"/>
</mask>
<g mask="url(#mask1_3333_64881)">
<path d="M9.18681 17.475C8.89166 17.4735 8.6074 17.3647 8.38701 17.1684C8.1567 16.9541 8.02036 16.6583 8.00615 16.3441C7.99194 16.0299 8.10081 15.7228 8.31084 15.4887C9.628 14.0404 11.3385 13.0046 13.2327 12.5101L15.2845 14.5609C13.2873 14.7004 11.4208 15.6044 10.0726 17.0844C9.96017 17.2072 9.82355 17.3063 9.67119 17.3734C9.51883 17.4406 9.35331 17.4749 9.18681 17.475ZM22.4329 17.4691L17.2493 12.2875C19.5695 12.6273 21.7014 13.7568 23.2845 15.4867C23.4386 15.6544 23.5412 15.8637 23.5794 16.0883C23.6176 16.3128 23.5893 16.5431 23.4993 16.7523C23.4094 16.9616 23.2618 17.1412 23.0726 17.268C22.8833 17.3947 22.6606 17.4636 22.4329 17.4672V17.4691ZM5.18681 13.2816C4.95542 13.2811 4.72958 13.2137 4.53642 13.0863C4.34327 12.9589 4.19149 12.7773 4.0999 12.5648C4.00831 12.3523 3.98079 12.117 4.0208 11.8891C4.06081 11.6611 4.167 11.4502 4.32549 11.2816C5.59034 9.94369 7.07643 8.83407 8.71904 8.00233L10.4876 9.77187C8.81311 10.5063 7.30444 11.5745 6.054 12.9086C5.94333 13.0276 5.80971 13.1215 5.66045 13.1859C5.51119 13.2503 5.34936 13.2828 5.18681 13.2816ZM26.8118 13.2816C26.6494 13.2826 26.4893 13.2501 26.3401 13.1859C26.1909 13.1217 26.0566 13.0272 25.9456 12.9086C24.6719 11.5497 23.1309 10.4675 21.4202 9.73085C19.7096 8.99425 17.8657 8.61886 16.0032 8.62733C15.2542 8.62631 14.5061 8.6862 13.7669 8.80702L11.7835 6.82265C14.5894 6.0547 17.551 6.06383 20.3519 6.84999C23.1527 7.63615 25.6865 9.16964 27.6829 11.2855C27.8964 11.5162 28.0114 11.821 28.0022 12.1351C27.9931 12.4493 27.8606 12.7474 27.6341 12.9652C27.4076 13.1666 27.1149 13.2774 26.8118 13.2777V13.2816Z" fill="#4C4C4C"/>
<path d="M13.187 21.511C12.9665 21.5108 12.7505 21.4492 12.5632 21.3331C12.3758 21.217 12.2245 21.0509 12.1263 20.8536C12.028 20.6563 11.9867 20.4355 12.007 20.216C12.0272 19.9965 12.1083 19.787 12.241 19.611C12.6512 19.0691 13.1815 18.6296 13.7901 18.327C14.3988 18.0244 15.0692 17.8669 15.749 17.8669C16.4287 17.8669 17.0991 18.0244 17.7078 18.327C18.3164 18.6296 18.8467 19.0691 19.257 19.611C19.4466 19.863 19.5284 20.1799 19.4843 20.4922C19.4402 20.8044 19.2739 21.0864 19.022 21.276C18.77 21.4656 18.453 21.5474 18.1408 21.5033C17.8285 21.4593 17.5466 21.293 17.357 21.041C17.1682 20.792 16.9244 20.59 16.6445 20.451C16.3647 20.312 16.0564 20.2396 15.744 20.2396C15.4315 20.2396 15.1232 20.312 14.8434 20.451C14.5636 20.59 14.3197 20.792 14.131 21.041C14.0199 21.1874 13.8764 21.306 13.7117 21.3876C13.5471 21.4692 13.3657 21.5114 13.182 21.511" fill="#4C4C4C"/>
<path d="M16.08 27.25C15.6698 27.249 15.2691 27.1265 14.9286 26.8979C14.588 26.6693 14.3228 26.3449 14.1665 25.9656C14.0102 25.5864 13.9699 25.1693 14.0505 24.7671C14.1311 24.365 14.3291 23.9957 14.6195 23.706C14.9099 23.4163 15.2797 23.2192 15.682 23.1395C16.0844 23.0599 16.5014 23.1012 16.8802 23.2584C17.2591 23.4156 17.5829 23.6816 17.8107 24.0227C18.0384 24.3638 18.16 24.7648 18.16 25.175C18.1587 25.7258 17.939 26.2536 17.549 26.6426C17.1591 27.0315 16.6308 27.25 16.08 27.25ZM16.08 24.879C16.0207 24.879 15.9627 24.8966 15.9133 24.9296C15.864 24.9625 15.8256 25.0094 15.8028 25.0642C15.7801 25.119 15.7742 25.1793 15.7858 25.2375C15.7974 25.2957 15.8259 25.3492 15.8679 25.3911C15.9098 25.4331 15.9633 25.4617 16.0215 25.4732C16.0797 25.4848 16.14 25.4789 16.1948 25.4562C16.2496 25.4335 16.2965 25.395 16.3295 25.3457C16.3624 25.2963 16.38 25.2383 16.38 25.179C16.38 25.0994 16.3484 25.0231 16.2921 24.9669C16.2359 24.9106 16.1596 24.879 16.08 24.879Z" fill="#4C4C4C"/>
</g>
<path d="M6.49902 6.5L25.599 25.6" stroke="#4C4C4C" stroke-width="2.5" stroke-linecap="round"/>
</g>
</g>
<defs>
<clipPath id="clip0_3333_64881">
<rect width="32" height="32" fill="white"/>
</clipPath>
</defs>
</svg>
