<svg width="32" height="32" viewBox="0 0 32 32" fill="none" xmlns="http://www.w3.org/2000/svg">
<g clip-path="url(#clip0_3333_64894)">
<mask id="mask0_3333_64894" style="mask-type:luminance" maskUnits="userSpaceOnUse" x="0" y="0" width="32" height="32">
<path d="M32 0H0V32H32V0Z" fill="white"/>
</mask>
<g mask="url(#mask0_3333_64894)">
<mask id="mask1_3333_64894" style="mask-type:luminance" maskUnits="userSpaceOnUse" x="1" y="1" width="30" height="30">
<path d="M31 1H1V31H31V1Z" fill="white"/>
</mask>
<g mask="url(#mask1_3333_64894)">
<path d="M26.8109 13.278C26.649 13.2783 26.4887 13.2454 26.34 13.1814C26.1912 13.1175 26.0571 13.0237 25.9459 12.906C24.6668 11.5524 23.1248 10.4742 21.4144 9.73724C19.7041 9.00031 17.8613 8.6202 15.9989 8.6202C14.1366 8.6202 12.2938 9.00031 10.5834 9.73724C8.87307 10.4742 7.3311 11.5524 6.05194 12.906C5.83619 13.1353 5.53819 13.2695 5.2235 13.279C4.90882 13.2886 4.60322 13.1728 4.37394 12.957C4.14466 12.7412 4.01048 12.4433 4.00091 12.1286C3.99135 11.8139 4.10719 11.5083 4.32294 11.279C5.82477 9.69052 7.63492 8.42518 9.64264 7.56039C11.6503 6.69561 13.8134 6.24957 15.9994 6.24957C18.1855 6.24957 20.3485 6.69561 22.3562 7.56039C24.364 8.42518 26.1741 9.69052 27.6759 11.279C27.8351 11.4476 27.9413 11.6592 27.9815 11.8875C28.0216 12.1159 27.994 12.351 27.9019 12.5638C27.8099 12.7766 27.6575 12.9578 27.4636 13.0849C27.2697 13.212 27.0428 13.2795 26.8109 13.279" fill="#4C4C4C"/>
<path d="M22.403 17.473C22.2371 17.4733 22.073 17.4389 21.9212 17.3719C21.7695 17.3049 21.6335 17.2068 21.522 17.084C20.7969 16.2857 19.9128 15.6478 18.9267 15.2113C17.9405 14.7747 16.8739 14.5492 15.7955 14.5492C14.717 14.5492 13.6504 14.7747 12.6642 15.2113C11.6781 15.6478 10.7941 16.2857 10.069 17.084C9.85784 17.3177 9.56255 17.4579 9.24806 17.4738C8.93356 17.4898 8.62561 17.3801 8.39195 17.169C8.1583 16.9579 8.01807 16.6626 8.00213 16.3481C7.98619 16.0336 8.09584 15.7257 8.30695 15.492C9.25513 14.4482 10.4111 13.6141 11.7006 13.0433C12.9901 12.4726 14.3848 12.1777 15.795 12.1777C17.2051 12.1777 18.5998 12.4726 19.8893 13.0433C21.1788 13.6141 22.3348 14.4482 23.283 15.492C23.4372 15.6621 23.5387 15.8734 23.5751 16.1001C23.6115 16.3268 23.5813 16.5592 23.4881 16.7691C23.3948 16.9789 23.2427 17.1572 23.05 17.2821C22.8574 17.4071 22.6326 17.4734 22.403 17.473Z" fill="#4C4C4C"/>
<path d="M13.187 21.511C12.9665 21.5108 12.7505 21.4492 12.5632 21.3331C12.3758 21.217 12.2245 21.0509 12.1263 20.8536C12.028 20.6563 11.9867 20.4355 12.007 20.216C12.0272 19.9965 12.1083 19.787 12.241 19.611C12.6512 19.0691 13.1815 18.6296 13.7901 18.327C14.3988 18.0244 15.0692 17.8669 15.749 17.8669C16.4287 17.8669 17.0991 18.0244 17.7078 18.327C18.3164 18.6296 18.8467 19.0691 19.257 19.611C19.4466 19.863 19.5284 20.1799 19.4843 20.4922C19.4402 20.8044 19.2739 21.0864 19.022 21.276C18.77 21.4656 18.453 21.5474 18.1408 21.5033C17.8285 21.4593 17.5466 21.293 17.357 21.041C17.1682 20.792 16.9244 20.59 16.6445 20.451C16.3647 20.312 16.0564 20.2396 15.744 20.2396C15.4315 20.2396 15.1232 20.312 14.8434 20.451C14.5636 20.59 14.3197 20.792 14.131 21.041C14.0199 21.1874 13.8764 21.306 13.7117 21.3876C13.5471 21.4692 13.3657 21.5114 13.182 21.511" fill="#4C4C4C"/>
<path d="M16.08 27.25C15.6698 27.249 15.2691 27.1265 14.9286 26.8979C14.588 26.6693 14.3228 26.3449 14.1665 25.9656C14.0102 25.5864 13.9699 25.1693 14.0505 24.7671C14.1311 24.365 14.3291 23.9957 14.6195 23.706C14.9099 23.4163 15.2797 23.2192 15.682 23.1395C16.0844 23.0599 16.5014 23.1012 16.8802 23.2584C17.2591 23.4156 17.5829 23.6816 17.8107 24.0227C18.0384 24.3638 18.16 24.7648 18.16 25.175C18.1587 25.7258 17.939 26.2536 17.549 26.6426C17.1591 27.0315 16.6308 27.25 16.08 27.25ZM16.08 24.879C16.0207 24.879 15.9627 24.8966 15.9133 24.9296C15.864 24.9625 15.8256 25.0094 15.8028 25.0642C15.7801 25.119 15.7742 25.1793 15.7858 25.2375C15.7974 25.2957 15.8259 25.3492 15.8679 25.3911C15.9098 25.4331 15.9633 25.4617 16.0215 25.4732C16.0797 25.4848 16.14 25.4789 16.1948 25.4562C16.2496 25.4335 16.2965 25.395 16.3295 25.3457C16.3624 25.2963 16.38 25.2383 16.38 25.179C16.38 25.0994 16.3484 25.0231 16.2921 24.9669C16.2359 24.9106 16.1596 24.879 16.08 24.879Z" fill="#4C4C4C"/>
</g>
</g>
</g>
<defs>
<clipPath id="clip0_3333_64894">
<rect width="32" height="32" fill="white"/>
</clipPath>
</defs>
</svg>
