<svg width="32" height="32" viewBox="0 0 32 32" fill="none" xmlns="http://www.w3.org/2000/svg">
<g clip-path="url(#clip0_3333_64884)">
<mask id="mask0_3333_64884" style="mask-type:luminance" maskUnits="userSpaceOnUse" x="0" y="0" width="32" height="32">
<path d="M32 0H0V32H32V0Z" fill="white"/>
</mask>
<g mask="url(#mask0_3333_64884)">
<mask id="mask1_3333_64884" style="mask-type:luminance" maskUnits="userSpaceOnUse" x="1" y="1" width="30" height="30">
<path d="M31 1H1V31H31V1Z" fill="white"/>
</mask>
<g mask="url(#mask1_3333_64884)">
<path d="M16.084 27.25C15.6734 27.2504 15.2723 27.1282 14.9306 26.9004C14.589 26.6726 14.3225 26.3499 14.165 25.9707C14.0075 25.5915 13.9662 25.1743 14.0459 24.7715C14.1256 24.3687 14.3222 23.9976 14.6123 23.707C14.9023 23.4164 15.2722 23.2192 15.6748 23.1387C16.0774 23.0582 16.4955 23.0991 16.875 23.2559C17.2545 23.4126 17.5782 23.6784 17.8066 24.0195C18.0351 24.3607 18.1578 24.7613 18.1582 25.1719C18.1571 25.722 17.9384 26.2493 17.5498 26.6387C17.1612 27.028 16.6341 27.2479 16.084 27.25ZM16.084 24.877C16.0414 24.8709 15.9982 24.8746 15.957 24.8867C15.9158 24.8989 15.8772 24.9191 15.8447 24.9473C15.8122 24.9754 15.7864 25.0097 15.7685 25.0488C15.7507 25.0879 15.7412 25.1309 15.7412 25.1738C15.7412 25.2168 15.7507 25.2597 15.7685 25.2988C15.7864 25.3379 15.8122 25.3722 15.8447 25.4004C15.8772 25.4286 15.9158 25.4488 15.957 25.4609C15.9982 25.4731 16.0414 25.4768 16.084 25.4707C16.1555 25.4605 16.2212 25.4257 16.2685 25.3711C16.3159 25.3165 16.3418 25.2461 16.3418 25.1738C16.3418 25.1016 16.3159 25.0311 16.2685 24.9766C16.2212 24.922 16.1555 24.8871 16.084 24.877ZM18.3105 21.5137C18.126 21.5134 17.9446 21.4707 17.7793 21.3887C17.614 21.3066 17.4702 21.1878 17.3584 21.041C17.172 20.7915 16.9291 20.5882 16.6504 20.4492C16.3716 20.3103 16.0644 20.2388 15.7529 20.2402C15.4401 20.2399 15.1319 20.3124 14.8515 20.4512C14.5712 20.59 14.3261 20.7921 14.1367 21.041C14.0259 21.187 13.8831 21.3057 13.7187 21.3867C13.5544 21.4678 13.3737 21.5088 13.1904 21.5078C12.9329 21.5097 12.6812 21.4257 12.4765 21.2695C12.3514 21.1765 12.2466 21.0599 12.167 20.9258C12.0873 20.7917 12.0344 20.6427 12.0127 20.4883C11.9909 20.3339 12.0006 20.1782 12.04 20.0273C12.0795 19.8765 12.1486 19.7334 12.2431 19.6094C12.6535 19.0684 13.1838 18.6301 13.792 18.3281C14.4001 18.0261 15.069 17.8691 15.748 17.8691C16.427 17.8691 17.0969 18.0261 17.7051 18.3281C18.3132 18.6301 18.8435 19.0684 19.2539 19.6094C19.3852 19.7853 19.4655 19.9942 19.4853 20.2129C19.5052 20.4315 19.4636 20.6529 19.3662 20.8496C19.2688 21.0464 19.1195 21.2114 18.9336 21.3281C18.7476 21.4448 18.532 21.5076 18.3125 21.5098L18.3105 21.5137ZM9.18943 17.4746C8.88617 17.4717 8.59501 17.3552 8.37498 17.1465C8.15495 16.9378 8.02185 16.6523 8.00291 16.3496C7.99353 16.1934 8.01489 16.0365 8.06639 15.8887C8.11788 15.7409 8.19829 15.6048 8.30271 15.4883C9.62158 14.0356 11.3351 12.9979 13.2334 12.502C15.1317 12.006 17.1333 12.0734 18.9941 12.6953L19.1806 15.3359C17.6773 14.5993 15.9751 14.3699 14.331 14.6855C12.687 15.0012 11.191 15.8449 10.0674 17.0859C9.95627 17.2085 9.82013 17.3059 9.66892 17.373C9.51772 17.4402 9.35488 17.4744 9.18943 17.4746ZM26.8115 13.2754C26.7805 13.2754 26.7498 13.2754 26.7168 13.2754L26.7627 12.5918C26.7775 12.3865 26.7495 12.1803 26.6806 11.9863C26.6118 11.7923 26.5042 11.6148 26.3633 11.4648C26.2225 11.3139 26.0515 11.1918 25.8623 11.1094C25.6731 11.027 25.4691 10.9846 25.2627 10.9844H23.7012C21.0095 9.15896 17.7566 8.35141 14.5234 8.70312C11.2902 9.05484 8.28696 10.5428 6.05076 12.9043C5.83344 13.1272 5.53778 13.2569 5.22654 13.2637C4.9153 13.2705 4.61354 13.1546 4.3867 12.9414C4.15986 12.7282 4.02613 12.4341 4.01365 12.123C4.00117 11.812 4.11126 11.508 4.32029 11.2773C5.82229 9.68897 7.63184 8.42526 9.63963 7.56055C11.6474 6.69583 13.811 6.24805 15.9971 6.24805C18.1831 6.24805 20.3457 6.69583 22.3535 7.56055C24.3613 8.42526 26.1718 9.68897 27.6738 11.2773C27.886 11.5078 28.0003 11.8138 27.9912 12.127C27.982 12.4401 27.8503 12.7355 27.625 12.9531C27.4036 13.1584 27.1134 13.2754 26.8115 13.2793V13.2754Z" fill="#4C4C4C"/>
<path d="M20.802 26.408C20.802 25.9927 20.9252 25.5867 21.1559 25.2413C21.3867 24.896 21.7146 24.6268 22.0984 24.4679C22.4821 24.3089 22.9043 24.2673 23.3117 24.3484C23.719 24.4294 24.0932 24.6294 24.3869 24.9231C24.6806 25.2168 24.8806 25.591 24.9616 25.9983C25.0427 26.4057 25.0011 26.8279 24.8421 27.2116C24.6832 27.5954 24.414 27.9233 24.0687 28.1541C23.7233 28.3848 23.3173 28.508 22.902 28.508C22.6262 28.508 22.3531 28.4537 22.0984 28.3482C21.8436 28.2426 21.6121 28.0879 21.4171 27.8929C21.2221 27.6979 21.0674 27.4664 20.9618 27.2116C20.8563 26.9569 20.802 26.6838 20.802 26.408ZM20.49 12.49H25.269L24.534 22.852H21.225L20.49 12.49Z" fill="#4C4C4C"/>
</g>
</g>
</g>
<defs>
<clipPath id="clip0_3333_64884">
<rect width="32" height="32" fill="white"/>
</clipPath>
</defs>
</svg>
