<svg width="32" height="32" viewBox="0 0 32 32" fill="none" xmlns="http://www.w3.org/2000/svg">
<g clip-path="url(#clip0_44_858)">
<path d="M16.4139 26.0333C16.1287 26.0338 15.8492 25.9529 15.6082 25.8001C15.3673 25.6474 15.175 25.4291 15.0537 25.1708C14.9325 24.9126 14.8874 24.6251 14.9237 24.3422C14.9601 24.0592 15.0764 23.7925 15.2589 23.5733L21.9789 15.5333L15.4989 7.47833C15.3748 7.31976 15.2832 7.1383 15.2292 6.9443C15.1752 6.75031 15.16 6.54759 15.1844 6.34771C15.2336 5.94404 15.4412 5.57646 15.7614 5.32583C16.0817 5.0752 16.4884 4.96205 16.8921 5.01128C17.0919 5.03566 17.2851 5.09916 17.4604 5.19817C17.6357 5.29718 17.7898 5.42976 17.9139 5.58833L25.1589 14.5883C25.3783 14.8563 25.4981 15.192 25.4981 15.5383C25.4981 15.8847 25.3783 16.2203 25.1589 16.4883L17.6589 25.4883C17.509 25.6708 17.318 25.8152 17.1017 25.9099C16.8854 26.0046 16.6497 26.0469 16.4139 26.0333Z" fill="#333333"/>
<path fillRule="evenodd" clip-rule="evenodd" d="M4.5 15.4893C4.5 14.6609 5.17157 13.9893 6 13.9893H24C24.8284 13.9893 25.5 14.6609 25.5 15.4893C25.5 16.3177 24.8284 16.9893 24 16.9893H6C5.17157 16.9893 4.5 16.3177 4.5 15.4893Z" fill="#333333"/>
</g>
<defs>
<clipPath id="clip0_44_858">
<rect width="32" height="32" fill="white"/>
</clipPath>
</defs>
</svg>
