<svg width="32" height="32" viewBox="0 0 32 32" fill="none" xmlns="http://www.w3.org/2000/svg">
<path d="M13 6H5C4.44772 6 4 6.44772 4 7V13C4 13.5523 4.44772 14 5 14H13C13.5523 14 14 13.5523 14 13V7C14 6.44772 13.5523 6 13 6Z" stroke="#4C4C4C" stroke-width="2.5"/>
<path d="M27 6H19C18.4477 6 18 6.44772 18 7V13C18 13.5523 18.4477 14 19 14H27C27.5523 14 28 13.5523 28 13V7C28 6.44772 27.5523 6 27 6Z" stroke="#4C4C4C" stroke-width="2.5"/>
<path d="M13 18H5C4.44772 18 4 18.4477 4 19V25C4 25.5523 4.44772 26 5 26H13C13.5523 26 14 25.5523 14 25V19C14 18.4477 13.5523 18 13 18Z" stroke="#4C4C4C" stroke-width="2.5"/>
<path d="M26.2545 17.352V20.431C26.2545 20.431 26.32 23.799 22.484 23.799H21.2975" stroke="#4C4C4C" stroke-width="2"/>
<path d="M17.673 23.799L21.633 20.948V26.648L17.673 23.799Z" fill="#4C4C4C"/>
<path d="M17.673 23.7994L21.6327 20.9508V26.648L17.673 23.7994Z" fill="#4C4C4C"/>
</svg>
