<svg width="32" height="32" viewBox="0 0 32 32" fill="none" xmlns="http://www.w3.org/2000/svg">
<path d="M15.7173 10.9493C15.7923 10.8744 15.894 10.8323 16 10.8323C16.106 10.8323 16.2077 10.8744 16.2827 10.9493L20.6507 15.3173C20.7065 15.3733 20.7446 15.4445 20.76 15.522C20.7754 15.5996 20.7675 15.68 20.7372 15.753C20.707 15.8261 20.6558 15.8885 20.5901 15.9325C20.5243 15.9764 20.4471 15.9999 20.368 16H11.632C11.5529 15.9999 11.4757 15.9764 11.41 15.9325C11.3443 15.8885 11.293 15.8261 11.2628 15.753C11.2325 15.68 11.2246 15.5996 11.24 15.522C11.2554 15.4445 11.2935 15.3733 11.3493 15.3173L15.7173 10.9493Z" fill="#4C4C4C"/>
<path fillRule="evenodd" clip-rule="evenodd" d="M16 13C16.5523 13 17 13.4477 17 14V27.3333C17 27.8856 16.5523 28.3333 16 28.3333C15.4477 28.3333 15 27.8856 15 27.3333V14C15 13.4477 15.4477 13 16 13Z" fill="#4C4C4C"/>
<path fillRule="evenodd" clip-rule="evenodd" d="M5.66669 6.66666C5.66669 6.11437 6.1144 5.66666 6.66669 5.66666H25.3334C25.8856 5.66666 26.3334 6.11437 26.3334 6.66666C26.3334 7.21894 25.8856 7.66666 25.3334 7.66666H6.66669C6.1144 7.66666 5.66669 7.21894 5.66669 6.66666Z" fill="#4C4C4C"/>
</svg>
