<svg width="32" height="32" viewBox="0 0 32 32" fill="none" xmlns="http://www.w3.org/2000/svg">
<path fillRule="evenodd" clip-rule="evenodd" d="M17.833 10.7C18.22 6.72199 19.977 4.81399 22.031 5.01399C24.087 5.21399 25.316 8.18699 24.929 12.16C24.8103 14.131 24.2874 16.0566 23.393 17.817L23.136 17.761L18.849 16.818L18.733 16.792C17.9456 14.8638 17.6368 12.7735 17.833 10.7ZM18.131 18.097L19.746 18.452L22.311 19.016L23.023 19.172C22.578 22.638 21.143 24.268 19.378 23.945C17.57 23.615 16.673 21.18 18.131 18.097ZM13.776 19.514L13.7773 19.5098L13.78 19.509L13.776 19.514ZM13.7773 19.5098C14.4059 17.5256 14.5447 15.4186 14.182 13.369C13.473 9.44001 11.571 7.68101 9.53697 8.04701C7.50297 8.41301 6.51997 11.476 7.22897 15.4C7.50665 17.353 8.18263 19.2281 9.21497 20.909L9.46597 20.832L13.666 19.544L13.7773 19.5098ZM10.4 22.025L12.907 21.255L14.488 20.77C16.192 23.724 15.5 26.224 13.721 26.7C11.988 27.17 10.421 25.658 9.69995 22.239L10.4 22.025Z" fill="#4C4C4C"/>
</svg>
