<svg width="32" height="32" viewBox="0 0 32 32" fill="none" xmlns="http://www.w3.org/2000/svg">
<g clip-path="url(#clip0_3333_64907)">
<mask id="mask0_3333_64907" style="mask-type:luminance" maskUnits="userSpaceOnUse" x="0" y="0" width="32" height="32">
<path d="M32 0H0V32H32V0Z" fill="white"/>
</mask>
<g mask="url(#mask0_3333_64907)">
<path d="M26 7.875V19.125C25.9997 19.6222 25.8021 20.099 25.4505 20.4505C25.099 20.8021 24.6222 20.9997 24.125 21H22.25V12.875C22.2489 12.0465 21.9194 11.2523 21.3335 10.6665C20.7477 10.0806 19.9535 9.75106 19.125 9.75H11V7.875C11.0003 7.3778 11.1979 6.90104 11.5495 6.54947C11.901 6.19789 12.3778 6.00026 12.875 6H24.125C24.6222 6.00026 25.099 6.19789 25.4505 6.54947C25.8021 6.90104 25.9997 7.3778 26 7.875ZM21 12.875V24.125C20.9997 24.6222 20.8021 25.099 20.4505 25.4505C20.099 25.8021 19.6222 25.9997 19.125 26H7.875C7.3778 25.9997 6.90104 25.8021 6.54947 25.4505C6.19789 25.099 6.00026 24.6222 6 24.125V12.875C6.00026 12.3778 6.19789 11.901 6.54947 11.5495C6.90104 11.1979 7.3778 11.0003 7.875 11H19.125C19.6222 11.0003 20.099 11.1979 20.4505 11.5495C20.8021 11.901 20.9997 12.3778 21 12.875ZM18.344 13.969C18.3437 13.8447 18.2942 13.7256 18.2063 13.6377C18.1184 13.5498 17.9993 13.5003 17.875 13.5H8.969C8.84469 13.5003 8.72556 13.5498 8.63766 13.6377C8.54976 13.7256 8.50026 13.8447 8.5 13.969V16H18.344V13.969Z" fill="#4C4C4C"/>
</g>
</g>
<defs>
<clipPath id="clip0_3333_64907">
<rect width="32" height="32" fill="white"/>
</clipPath>
</defs>
</svg>
