<svg width="32" height="32" viewBox="0 0 32 32" fill="none" xmlns="http://www.w3.org/2000/svg">
<g clip-path="url(#clip0_44_650)">
<path d="M10.6666 28V27.0374C10.6666 25.98 11.8666 25.1147 13.3333 25.1147H14.6666V20.96L16 19.9987L17.3333 20.96V25.1147H18.6666C20.1333 25.1147 21.3333 25.9747 21.3333 27.0374V28H10.6666ZM20.244 20.508L16 18.2786L11.756 20.5094C11.6493 20.5651 11.5291 20.59 11.409 20.5813C11.2889 20.5726 11.1736 20.5306 11.076 20.46C10.9785 20.3893 10.9028 20.2928 10.8573 20.1814C10.8118 20.07 10.7985 19.948 10.8187 19.8293L11.628 15.104L8.19464 11.756C8.10744 11.6715 8.04593 11.5641 8.01715 11.4461C7.98837 11.3282 7.99347 11.2045 8.03196 11.0894C8.06901 10.9747 8.13754 10.8728 8.22972 10.7952C8.3219 10.7177 8.43401 10.6675 8.55329 10.6506L13.2986 9.95996L15.4213 5.65999C15.4809 5.55939 15.5656 5.47603 15.6672 5.41813C15.7688 5.36024 15.8837 5.32983 16.0006 5.32983C16.1176 5.32983 16.2325 5.36024 16.334 5.41813C16.4356 5.47603 16.5204 5.55939 16.58 5.65999L18.7013 9.95996L23.4467 10.6506C23.5659 10.6677 23.6779 10.7179 23.7701 10.7954C23.8622 10.873 23.9308 10.9748 23.968 11.0894C24.0062 11.2045 24.0112 11.3282 23.9824 11.446C23.9536 11.5639 23.8923 11.6714 23.8053 11.756L20.3707 15.1027L21.1813 19.828C21.2013 19.9468 21.1878 20.0689 21.1424 20.1805C21.0969 20.2921 21.0213 20.3889 20.924 20.46C20.8133 20.5397 20.6804 20.5827 20.544 20.5827C20.4391 20.5831 20.3356 20.558 20.2427 20.5094L20.244 20.508Z" fill="#333333"/>
</g>
<defs>
<clipPath id="clip0_44_650">
<rect width="32" height="32" fill="white"/>
</clipPath>
</defs>
</svg>
