<svg width="32" height="32" viewBox="0 0 32 32" fill="none" xmlns="http://www.w3.org/2000/svg">
<g clip-path="url(#clip0_44_659)">
<path fillRule="evenodd" clip-rule="evenodd" d="M16 6.05714C10.5087 6.05714 6.05714 10.5087 6.05714 16C6.05714 21.4913 10.5087 25.9429 16 25.9429C21.4913 25.9429 25.9429 21.4913 25.9429 16C25.9429 10.5087 21.4913 6.05714 16 6.05714ZM4 16C4 9.37258 9.37258 4 16 4C22.6274 4 28 9.37258 28 16C28 22.6274 22.6274 28 16 28C9.37258 28 4 22.6274 4 16Z" fill="#333333"/>
<path d="M24.2259 16.4114C24.2896 16.4859 24.3246 16.5808 24.3246 16.6788C24.3246 16.7769 24.2896 16.8717 24.2259 16.9463L21.0716 20.634C21.0166 20.6984 20.943 20.7442 20.8609 20.7653C20.7789 20.7863 20.6923 20.7815 20.6131 20.7515C20.5339 20.7214 20.4659 20.6677 20.4183 20.5976C20.3708 20.5275 20.346 20.4444 20.3475 20.3597V12.9979C20.346 12.9132 20.3708 12.8301 20.4183 12.76C20.4659 12.6899 20.5339 12.6362 20.6131 12.6062C20.6923 12.5762 20.7789 12.5714 20.8609 12.5924C20.943 12.6134 21.0166 12.6592 21.0716 12.7236L24.2259 16.4114Z" fill="#333333"/>
<path fillRule="evenodd" clip-rule="evenodd" d="M23.2919 16.6857C23.2919 17.2538 22.8314 17.7143 22.2634 17.7143H14.6286C14.0606 17.7143 13.6 17.2538 13.6 16.6857C13.6 16.1176 14.0606 15.6571 14.6286 15.6571H22.2634C22.8314 15.6571 23.2919 16.1176 23.2919 16.6857Z" fill="#333333"/>
</g>
<defs>
<clipPath id="clip0_44_659">
<rect width="32" height="32" fill="white"/>
</clipPath>
</defs>
</svg>
