<svg width="32" height="32" viewBox="0 0 32 32" fill="none" xmlns="http://www.w3.org/2000/svg">
<g clip-path="url(#clip0_44_862)">
<path d="M22.188 17.017V22.59H16.615V17.017H22.188ZM21.042 4.778H23.282V7.018H24.376C24.6707 7.01574 24.9628 7.0721 25.2355 7.18382C25.5082 7.29554 25.7559 7.46038 25.9643 7.66874C26.1726 7.87711 26.3375 8.12483 26.4492 8.3975C26.5609 8.67017 26.6173 8.96234 26.615 9.257V24.779C26.6173 25.0737 26.5609 25.366 26.4491 25.6387C26.3373 25.9115 26.1724 26.1592 25.9639 26.3676C25.7554 26.576 25.5076 26.7408 25.2348 26.8525C24.962 26.9641 24.6697 27.0204 24.375 27.018H8.855C8.55988 27.0237 8.26672 26.9689 7.9936 26.8569C7.72048 26.7449 7.4732 26.5782 7.267 26.367C7.05567 26.1606 6.88881 25.9132 6.77668 25.6399C6.66456 25.3667 6.60953 25.0733 6.615 24.778V9.257C6.6093 8.96188 6.66413 8.66872 6.77609 8.3956C6.88806 8.12248 7.05479 7.8752 7.266 7.669C7.47246 7.45785 7.71993 7.29118 7.9932 7.17922C8.26646 7.06727 8.55974 7.0124 8.855 7.018H9.949V4.778H12.189V7.018H21.043L21.042 4.778ZM24.376 24.778V12.59H8.855V24.778H24.376Z" fill="#333333"/>
</g>
<defs>
<clipPath id="clip0_44_862">
<rect width="32" height="32" fill="white"/>
</clipPath>
</defs>
</svg>
