<svg width="32" height="32" viewBox="0 0 32 32" fill="none" xmlns="http://www.w3.org/2000/svg">
<path d="M15.9857 20.8C13.9286 20.8 13.3571 18.6286 13.2429 18.4L11.3 19.2C11.9857 21.7143 13.9286 22.4 14.7286 22.6286V24H16.7857V22.6286C17.3571 22.5143 20.2143 21.9429 20.2143 18.9714C20.2143 17.3714 19.5286 16 16.7857 15.0857C14.7286 14.4 13.8143 13.9429 13.8143 12.9143C13.8143 11.7714 15.0714 11.3143 15.8714 11.3143C17.3571 11.3143 17.9286 12.4571 18.0429 12.8L19.8714 12C19.7571 11.5429 18.9571 9.82857 16.7857 9.48571V8H14.7286V9.48571C11.7571 10.1714 11.7571 12.8 11.7571 12.9143C11.7571 15.5429 14.2714 16.2286 15.5286 16.6857C17.3571 17.3714 18.1571 17.9429 18.1571 18.9714C18.1571 20.2286 17.0143 20.8 15.9857 20.8Z" fill="#4C4C4C"/>
<path fillRule="evenodd" clip-rule="evenodd" d="M16 5C9.92487 5 5 9.92487 5 16C5 22.0751 9.92487 27 16 27C22.0751 27 27 22.0751 27 16C27 9.92487 22.0751 5 16 5ZM3 16C3 8.8203 8.8203 3 16 3C23.1797 3 29 8.8203 29 16C29 23.1797 23.1797 29 16 29C8.8203 29 3 23.1797 3 16Z" fill="#4C4C4C"/>
</svg>
