<svg width="32" height="32" viewBox="0 0 32 32" fill="none" xmlns="http://www.w3.org/2000/svg">
<g clip-path="url(#clip0_44_867)">
<path d="M11 27C10.2044 27 9.44127 26.6839 8.87866 26.1213C8.31605 25.5587 8 24.7957 8 24V10H7C6.73478 10 6.48038 9.89464 6.29285 9.7071C6.10531 9.51957 6 9.26522 6 9C6 8.73479 6.10531 8.48043 6.29285 8.2929C6.48038 8.10536 6.73478 8 7 8H15V5.454H17V8H25C25.2652 8 25.5196 8.10536 25.7072 8.2929C25.8947 8.48043 26 8.73479 26 9C26 9.26522 25.8947 9.51957 25.7072 9.7071C25.5196 9.89464 25.2652 10 25 10H24V24C24 24.7957 23.6839 25.5587 23.1213 26.1213C22.5587 26.6839 21.7956 27 21 27H11ZM10 24C10 24.2652 10.1053 24.5196 10.2928 24.7071C10.4804 24.8946 10.7348 25 11 25H21C21.2652 25 21.5196 24.8946 21.7072 24.7071C21.8947 24.5196 22 24.2652 22 24V10H10V24ZM17 22V14C17 13.7348 17.1053 13.4804 17.2928 13.2929C17.4804 13.1054 17.7348 13 18 13C18.2652 13 18.5196 13.1054 18.7072 13.2929C18.8947 13.4804 19 13.7348 19 14V22C19 22.2652 18.8947 22.5196 18.7072 22.7071C18.5196 22.8946 18.2652 23 18 23C17.7348 23 17.4804 22.8946 17.2928 22.7071C17.1053 22.5196 17 22.2652 17 22ZM13 22V14C13 13.7348 13.1053 13.4804 13.2928 13.2929C13.4804 13.1054 13.7348 13 14 13C14.2652 13 14.5196 13.1054 14.7072 13.2929C14.8947 13.4804 15 13.7348 15 14V22C15 22.2652 14.8947 22.5196 14.7072 22.7071C14.5196 22.8946 14.2652 23 14 23C13.7348 23 13.4804 22.8946 13.2928 22.7071C13.1053 22.5196 13 22.2652 13 22Z" fill="#333333"/>
</g>
<defs>
<clipPath id="clip0_44_867">
<rect width="32" height="32" fill="white"/>
</clipPath>
</defs>
</svg>
