<svg width="32" height="32" viewBox="0 0 32 32" fill="none" xmlns="http://www.w3.org/2000/svg"><path d="M12.507 6.102 C 12.291 6.198,12.115 6.398,12.052 6.618 C 12.023 6.718,12.000 7.417,12.000 8.173 L 12.000 9.547 12.987 9.547 L 13.973 9.547 13.973 8.773 L 13.973 8.000 18.987 8.000 L 24.000 8.000 24.000 13.013 L 24.000 18.027 23.200 18.027 L 22.400 18.027 22.400 19.016 L 22.400 20.006 23.916 19.990 C 25.351 19.974,25.440 19.967,25.580 19.863 C 25.661 19.803,25.776 19.687,25.837 19.606 C 25.946 19.459,25.947 19.440,25.947 12.987 C 25.947 6.524,25.946 6.514,25.836 6.364 C 25.775 6.281,25.643 6.171,25.543 6.120 C 25.372 6.033,24.953 6.027,19.013 6.029 C 13.843 6.030,12.637 6.044,12.507 6.102 M6.593 12.055 C 6.392 12.116,6.191 12.304,6.100 12.518 C 6.039 12.660,6.027 13.777,6.027 19.025 C 6.027 24.951,6.033 25.372,6.120 25.543 C 6.171 25.643,6.281 25.775,6.364 25.836 C 6.514 25.946,6.524 25.947,12.987 25.947 C 19.440 25.947,19.459 25.946,19.606 25.837 C 19.687 25.776,19.803 25.660,19.863 25.579 C 19.973 25.433,19.973 25.413,19.973 19.023 C 19.973 12.672,19.972 12.612,19.865 12.429 C 19.805 12.327,19.673 12.195,19.571 12.135 C 19.389 12.028,19.319 12.027,13.067 12.017 C 9.591 12.012,6.678 12.029,6.593 12.055 M18.014 19.000 L 18.027 24.000 13.014 24.000 L 8.000 24.000 8.000 18.986 L 8.000 13.973 13.000 13.986 L 18.000 14.000 18.014 19.000 " stroke="none" fillRule="evenodd" fill="black"></path></svg>