<svg width="32" height="32" viewBox="0 0 32 32" fill="none" xmlns="http://www.w3.org/2000/svg">
<path d="M16.7903 5.73378L10.7521 11.6758L4.73931 17.7304C4.26579 18.1992 4 18.8333 4 19.4943C4 20.1552 4.26579 20.7894 4.73931 21.2581L10.2055 26.6372C10.4422 26.8683 10.7618 26.9986 11.0953 27H26.3497V24.4981H17.4513L26.6293 15.4662C26.8657 15.2338 27.0533 14.9579 27.1812 14.6542C27.3091 14.3505 27.375 14.0249 27.375 13.6961C27.375 13.3673 27.3091 13.0417 27.1812 12.738C27.0533 12.4343 26.8657 12.1584 26.6293 11.926L20.3878 5.73378C20.1516 5.50116 19.8712 5.31662 19.5626 5.19071C19.254 5.06481 18.9231 5 18.589 5C18.2549 5 17.9241 5.06481 17.6154 5.19071C17.3068 5.31662 17.0264 5.50116 16.7903 5.73378ZM11.6165 24.4981L6.5317 19.4943L12.5699 13.4397L13.5106 12.5014L19.803 18.6937L14.0063 24.398L13.9174 24.4981H11.6165Z" fill="#4C4C4C"/>
</svg>
