<svg width="32" height="32" viewBox="0 0 32 32" fill="none" xmlns="http://www.w3.org/2000/svg">
<path d="M15.2957 23.2522C15.087 23.2522 14.8783 23.1739 14.7217 23.0435C14.4609 22.8348 14.3304 22.4957 14.4087 22.1565L15.687 15.6348L14.9826 16.0261C14.5391 16.2609 13.9913 16.1304 13.7304 15.687C13.4957 15.2435 13.6261 14.6957 14.0696 14.4348L16.4957 13.0522C16.8087 12.8696 17.2 12.8957 17.487 13.1043C17.7739 13.313 17.9043 13.6783 17.8522 14.0174L16.5217 20.8L17.6174 20.3304C18.087 20.1217 18.6087 20.3304 18.8174 20.8C19.0261 21.2696 18.8174 21.7913 18.3478 22L15.6609 23.1739C15.5565 23.2261 15.4261 23.2522 15.2957 23.2522ZM17.8783 10.7826C18.113 10.5478 18.2696 10.2087 18.2696 9.86957C18.2696 9.53043 18.1391 9.1913 17.8783 8.95652C17.6435 8.72174 17.3043 8.56522 16.9652 8.56522C16.6261 8.56522 16.287 8.69565 16.0522 8.95652C15.8174 9.1913 15.6609 9.53043 15.6609 9.86957C15.6609 10.2087 15.7913 10.5478 16.0522 10.7826C16.287 11.0174 16.6261 11.1739 16.9652 11.1739C17.3043 11.1739 17.6435 11.0435 17.8783 10.7826ZM28 16C28 9.37391 22.6261 4 16 4C9.37391 4 4 9.37391 4 16C4 22.6261 9.37391 28 16 28C22.6261 28 28 22.6261 28 16ZM25.913 16C25.913 21.4783 21.4783 25.913 16 25.913C10.5217 25.913 6.08696 21.4783 6.08696 16C6.08696 10.5217 10.5217 6.08696 16 6.08696C21.4783 6.08696 25.913 10.5217 25.913 16Z" fill="#4C4C4C"/>
</svg>
