<svg width="32" height="32" viewBox="0 0 32 32" fill="none" xmlns="http://www.w3.org/2000/svg">
<g clip-path="url(#clip0_44_853)">
<path fillRule="evenodd" clip-rule="evenodd" d="M12 11C12 8.79086 13.7909 7 16 7C18.2091 7 20 8.79086 20 11V13H12V11ZM10 13V11C10 7.68629 12.6863 5 16 5C19.3137 5 22 7.68629 22 11V13H23C23.2652 13 23.5196 13.1054 23.7071 13.2929C23.8946 13.4804 24 13.7348 24 14V27C24 27.2652 23.8946 27.5196 23.7071 27.7071C23.5196 27.8946 23.2652 28 23 28H9C8.73478 28 8.48043 27.8946 8.29289 27.7071C8.10536 27.5196 8 27.2652 8 27V14C8 13.7348 8.10536 13.4804 8.29289 13.2929C8.48043 13.1054 8.73478 13 9 13H10ZM15.2929 17.2929C15.4804 17.1054 15.7348 17 16 17C16.2652 17 16.5196 17.1054 16.7071 17.2929C16.8946 17.4804 17 17.7348 17 18V22C17 22.2652 16.8946 22.5196 16.7071 22.7071C16.5196 22.8946 16.2652 23 16 23C15.7348 23 15.4804 22.8946 15.2929 22.7071C15.1054 22.5196 15 22.2652 15 22V18C15 17.7348 15.1054 17.4804 15.2929 17.2929Z" fill="#333333"/>
</g>
<defs>
<clipPath id="clip0_44_853">
<rect width="32" height="32" fill="white"/>
</clipPath>
</defs>
</svg>
