<svg width="32" height="32" viewBox="0 0 32 32" fill="none" xmlns="http://www.w3.org/2000/svg">
<path fillRule="evenodd" clip-rule="evenodd" d="M23.2929 12.2929C23.6834 11.9024 24.3166 11.9024 24.7071 12.2929L27.2071 14.7929C27.5976 15.1834 27.5976 15.8166 27.2071 16.2071L24.7071 18.7071C24.3166 19.0976 23.6834 19.0976 23.2929 18.7071C22.9024 18.3166 22.9024 17.6834 23.2929 17.2929L24.0858 16.5H19C18.4477 16.5 18 16.0523 18 15.5C18 14.9477 18.4477 14.5 19 14.5H24.0858L23.2929 13.7071C22.9024 13.3166 22.9024 12.6834 23.2929 12.2929Z" fill="#333333"/>
<path d="M6 6.30925C6 5.64988 6.62698 5.17099 7.26312 5.34449L16.2631 7.79903C16.6982 7.91769 17 8.31284 17 8.7638V27.6908C17 28.3501 16.373 28.829 15.7369 28.6555L6.73688 26.201C6.30182 26.0823 6 25.6872 6 25.2362V6.30925Z" fill="#333333"/>
<path fillRule="evenodd" clip-rule="evenodd" d="M8 23.9V7.1H21V10H23V6.05C23 5.4701 22.5523 5 22 5H7C6.44772 5 6 5.4701 6 6.05V24.95C6 25.5299 6.44772 26 7 26H22C22.5523 26 23 25.5299 23 24.95V21H21V23.9H8Z" fill="#333333"/>
<circle cx="22" cy="10" r="1" fill="#333333"/>
<circle cx="22" cy="21" r="1" fill="#333333"/>
</svg>
