<svg width="32" height="32" viewBox="0 0 32 32" fill="none" xmlns="http://www.w3.org/2000/svg">
<path d="M18.75 27C18.5069 27 18.2738 26.9034 18.1019 26.7314C17.93 26.5595 17.8333 26.3264 17.8333 26.0833V18.75C17.8333 18.5069 17.93 18.2738 18.1019 18.1019C18.2738 17.93 18.5069 17.8333 18.75 17.8333H26.0833C26.3264 17.8333 26.5595 17.93 26.7314 18.1019C26.9034 18.2738 27 18.5069 27 18.75V26.0833C27 26.3264 26.9034 26.5595 26.7314 26.7314C26.5595 26.9034 26.3264 27 26.0833 27H18.75ZM5.91667 27C5.67355 27 5.44046 26.9034 5.26855 26.7314C5.09665 26.5595 5 26.3264 5 26.0833V18.75C5 18.5069 5.09665 18.2738 5.26855 18.1019C5.44046 17.93 5.67355 17.8333 5.91667 17.8333H13.25C13.4931 17.8333 13.7262 17.93 13.8981 18.1019C14.07 18.2738 14.1667 18.5069 14.1667 18.75V26.0833C14.1667 26.3264 14.07 26.5595 13.8981 26.7314C13.7262 26.9034 13.4931 27 13.25 27H5.91667ZM18.75 14.1667C18.5069 14.1667 18.2738 14.07 18.1019 13.8981C17.93 13.7262 17.8333 13.4931 17.8333 13.25V5.91667C17.8333 5.67355 17.93 5.44046 18.1019 5.26855C18.2738 5.09665 18.5069 5 18.75 5H26.0833C26.3264 5 26.5595 5.09665 26.7314 5.26855C26.9034 5.44046 27 5.67355 27 5.91667V13.25C27 13.4931 26.9034 13.7262 26.7314 13.8981C26.5595 14.07 26.3264 14.1667 26.0833 14.1667H18.75ZM5.91667 14.1667C5.67355 14.1667 5.44046 14.07 5.26855 13.8981C5.09665 13.7262 5 13.4931 5 13.25V5.91667C5 5.67355 5.09665 5.44046 5.26855 5.26855C5.44046 5.09665 5.67355 5 5.91667 5H13.25C13.4931 5 13.7262 5.09665 13.8981 5.26855C14.07 5.44046 14.1667 5.67355 14.1667 5.91667V13.25C14.1667 13.4931 14.07 13.7262 13.8981 13.8981C13.7262 14.07 13.4931 14.1667 13.25 14.1667H5.91667Z" fill="#333333"/>
</svg>
