<svg width="32" height="32" viewBox="0 0 32 32" fill="none" xmlns="http://www.w3.org/2000/svg">
<g clip-path="url(#clip0_44_856)">
<path d="M16 25C17.1046 25 18 24.1046 18 23C18 21.8954 17.1046 21 16 21C14.8954 21 14 21.8954 14 23C14 24.1046 14.8954 25 16 25Z" fill="#333333"/>
<path d="M16 18C17.1046 18 18 17.1046 18 16C18 14.8954 17.1046 14 16 14C14.8954 14 14 14.8954 14 16C14 17.1046 14.8954 18 16 18Z" fill="#333333"/>
<path d="M16 11C17.1046 11 18 10.1046 18 9C18 7.89543 17.1046 7 16 7C14.8954 7 14 7.89543 14 9C14 10.1046 14.8954 11 16 11Z" fill="#333333"/>
</g>
<defs>
<clipPath id="clip0_44_856">
<rect width="32" height="32" fill="white"/>
</clipPath>
</defs>
</svg>
