<svg width="32" height="32" viewBox="0 0 32 32" fill="none" xmlns="http://www.w3.org/2000/svg">
<path fillRule="evenodd" clip-rule="evenodd" d="M26 16C26 21.5228 21.5228 26 16 26C10.4772 26 6 21.5228 6 16C6 10.4772 10.4772 6 16 6C21.5228 6 26 10.4772 26 16ZM28 16C28 22.6274 22.6274 28 16 28C9.37258 28 4 22.6274 4 16C4 9.37258 9.37258 4 16 4C22.6274 4 28 9.37258 28 16ZM17.1856 10H12V22H14.4588V17.3362H17.1856C18.4361 17.3362 19.3818 17.0071 20.0228 16.3489C20.6743 15.6794 21 14.783 21 13.6596C21 12.5248 20.6743 11.634 20.0228 10.9872C19.3818 10.3291 18.4361 10 17.1856 10ZM16.8704 15.2766H14.4588V12.0596H16.8704C17.4588 12.0596 17.8949 12.2014 18.1786 12.4851C18.4729 12.7574 18.62 13.1489 18.62 13.6596C18.62 14.1702 18.4729 14.5674 18.1786 14.8511C17.8949 15.1348 17.4588 15.2766 16.8704 15.2766Z" fill="#4C4C4C"/>
</svg>
