<svg width="32" height="32" viewBox="0 0 32 32" fill="none" xmlns="http://www.w3.org/2000/svg">
<path fillRule="evenodd" clip-rule="evenodd" d="M17.5 12.958L24.958 12.958C25.2232 12.958 25.4776 12.8526 25.6651 12.6651C25.8526 12.4776 25.958 12.2232 25.958 11.958V4.5H23.958L23.958 9.40586C22.5443 7.92445 20.7366 6.85857 18.7317 6.34459C16.1869 5.69218 13.4926 5.97208 11.1363 7.13367C8.77994 8.29526 6.91711 10.2618 5.88481 12.6776C4.8525 15.0934 4.71888 17.7989 5.50812 20.3046C6.29736 22.8104 7.95734 24.9509 10.1878 26.3391C12.4182 27.7272 15.0718 28.2712 17.6685 27.8727C20.2652 27.4742 22.6335 26.1596 24.3451 24.1665C26.0567 22.1735 26.9984 19.6337 27 17.0066L25 17.0054C24.9987 19.1548 24.2282 21.2328 22.8278 22.8635C21.4274 24.4942 19.4897 25.5698 17.3651 25.8959C15.2405 26.2219 13.0694 25.7768 11.2445 24.641C9.41964 23.5053 8.06148 21.754 7.41574 19.7038C6.76999 17.6536 6.87932 15.4401 7.72393 13.4635C8.56855 11.4869 10.0927 9.87794 12.0206 8.92755C13.9485 7.97716 16.1529 7.74815 18.235 8.28194C19.9517 8.72203 21.4917 9.65667 22.6704 10.958L17.5 10.958L17.5 12.958Z" fill="#4C4C4C"/>
</svg>
