<svg width="32" height="32" viewBox="0 0 32 32" fill="none" xmlns="http://www.w3.org/2000/svg"><path d="M15.520 7.002 C 15.235 7.095,14.790 7.556,14.744 7.805 C 14.680 8.151,14.791 8.361,15.523 9.281 L 16.221 10.160 13.217 10.191 C 10.617 10.217,10.160 10.234,9.813 10.315 C 8.565 10.606,7.376 11.204,6.506 11.977 C 3.326 14.803,3.174 19.678,6.174 22.654 C 7.486 23.955,9.280 24.722,11.093 24.759 C 11.751 24.772,11.979 24.692,12.172 24.381 C 12.346 24.102,12.346 23.471,12.172 23.192 C 11.998 22.911,11.786 22.834,11.020 22.772 C 10.626 22.740,10.157 22.663,9.881 22.585 C 7.986 22.049,6.509 20.463,6.107 18.533 C 6.003 18.032,5.989 17.095,6.078 16.560 C 6.377 14.756,7.728 13.134,9.465 12.495 C 10.300 12.187,10.200 12.196,13.329 12.174 L 16.231 12.154 16.045 12.384 C 14.791 13.935,14.684 14.104,14.739 14.442 C 14.785 14.726,15.010 15.020,15.320 15.202 C 15.657 15.398,15.988 15.398,16.265 15.201 C 16.359 15.134,17.110 14.236,17.933 13.206 C 18.756 12.176,19.462 11.295,19.502 11.248 C 19.567 11.173,19.383 10.922,17.979 9.168 C 17.101 8.071,16.315 7.134,16.231 7.085 C 16.022 6.962,15.741 6.930,15.520 7.002 M20.588 10.280 C 20.220 10.465,20.052 10.938,20.165 11.468 C 20.233 11.785,20.448 12.025,20.736 12.104 C 21.006 12.179,27.208 12.179,27.478 12.104 C 27.902 11.987,28.108 11.661,28.105 11.114 C 28.104 10.734,27.948 10.430,27.686 10.296 C 27.476 10.189,27.398 10.187,24.122 10.187 C 21.040 10.187,20.759 10.194,20.588 10.280 M18.699 16.535 C 18.481 16.601,18.249 16.841,18.187 17.064 C 18.032 17.620,18.197 18.158,18.580 18.343 C 18.803 18.452,18.874 18.453,23.120 18.453 C 27.309 18.453,27.439 18.450,27.651 18.348 C 27.980 18.188,28.080 17.981,28.080 17.457 C 28.080 16.985,28.019 16.845,27.713 16.617 C 27.567 16.508,27.519 16.507,23.209 16.497 C 20.814 16.492,18.784 16.509,18.699 16.535 M14.847 22.822 C 14.542 22.873,14.355 23.010,14.237 23.271 C 14.013 23.764,14.169 24.440,14.560 24.665 C 14.745 24.772,14.820 24.773,21.120 24.773 C 27.420 24.773,27.495 24.772,27.680 24.665 C 28.262 24.329,28.244 23.202,27.653 22.907 C 27.444 22.802,27.326 22.800,21.253 22.793 C 17.851 22.789,14.968 22.802,14.847 22.822 " stroke="none" fillRule="evenodd" fill="black"></path></svg>