<svg width="32" height="32" viewBox="0 0 32 32" fill="none" xmlns="http://www.w3.org/2000/svg">
<g clip-path="url(#clip0_44_861)">
<path fillRule="evenodd" clip-rule="evenodd" d="M14.7824 7.12513C13.5192 6.87386 12.2099 7.00282 11.02 7.4957C9.83005 7.98857 8.81302 8.82323 8.09747 9.89413C7.38192 10.965 7 12.224 7 13.512C7 15.2391 7.68608 16.8954 8.90732 18.1167C10.1286 19.3379 11.7849 20.024 13.512 20.024C14.8 20.024 16.059 19.6421 17.1299 18.9265C18.2008 18.211 19.0354 17.1939 19.5283 16.004C20.0212 14.8141 20.1501 13.5048 19.8989 12.2416C19.6476 10.9784 19.0274 9.81804 18.1167 8.90732C17.206 7.9966 16.0456 7.37639 14.7824 7.12513ZM10.2546 5.64794C11.81 5.00369 13.5214 4.83512 15.1726 5.16356C16.8238 5.49199 18.3405 6.30268 19.5309 7.49311C20.7213 8.68353 21.532 10.2002 21.8604 11.8514C22.1889 13.5026 22.0203 15.214 21.3761 16.7694C20.7318 18.3248 19.6408 19.6542 18.241 20.5895C16.8412 21.5248 15.1955 22.024 13.512 22.024C11.2545 22.024 9.08942 21.1272 7.49311 19.5309C5.8968 17.9346 5 15.7695 5 13.512C5 11.8285 5.49922 10.1828 6.43453 8.78299C7.36984 7.38319 8.69923 6.29219 10.2546 5.64794Z" fill="#333333"/>
<path fillRule="evenodd" clip-rule="evenodd" d="M18.2823 18.2823C18.8681 17.6966 19.8179 17.6966 20.4036 18.2823L26.7676 24.6463C27.3534 25.2321 27.3534 26.1818 26.7676 26.7676C26.1818 27.3534 25.2321 27.3534 24.6463 26.7676L18.2823 20.4037C17.6965 19.8179 17.6965 18.8681 18.2823 18.2823Z" fill="#333333"/>
</g>
<defs>
<clipPath id="clip0_44_861">
<rect width="32" height="32" fill="white"/>
</clipPath>
</defs>
</svg>
