<svg width="32" height="32" viewBox="0 0 32 32" fill="none" xmlns="http://www.w3.org/2000/svg">
<path d="M23.0926 20.9839C22.215 20.9859 21.3702 21.3174 20.7256 21.9129L12.1396 16.9059C12.2842 16.3528 12.2842 15.7719 12.1396 15.2189L20.6396 10.2589C21.2489 10.8207 22.0331 11.1555 22.8603 11.207C23.6875 11.2585 24.5071 11.0237 25.1815 10.5419C25.8558 10.0601 26.3437 9.36075 26.563 8.56153C26.7823 7.7623 26.7197 6.91193 26.3857 6.15343C26.0518 5.39493 25.4668 4.77458 24.7291 4.39672C23.9915 4.01885 23.1463 3.90652 22.3356 4.07861C21.5249 4.25071 20.7982 4.69673 20.2777 5.34167C19.7572 5.98661 19.4746 6.79112 19.4776 7.61988C19.4794 7.90421 19.5157 8.18727 19.5856 8.46288L11.0856 13.4219C10.5711 12.9402 9.92693 12.6194 9.23244 12.499C8.53796 12.3786 7.82343 12.4639 7.17678 12.7443C6.53012 13.0247 5.97955 13.4881 5.5928 14.0773C5.20605 14.6666 5 15.356 5 16.0609C5 16.7657 5.20605 17.4552 5.5928 18.0444C5.97955 18.6337 6.53012 19.097 7.17678 19.3775C7.82343 19.6579 8.53796 19.7431 9.23244 19.6228C9.92693 19.5024 10.5711 19.1816 11.0856 18.6999L19.6716 23.7069C19.6073 23.9654 19.5737 24.2305 19.5716 24.4969C19.5718 25.1912 19.7778 25.8698 20.1637 26.447C20.5495 27.0242 21.0978 27.4741 21.7392 27.7397C22.3807 28.0054 23.0865 28.0749 23.7674 27.9394C24.4484 27.804 25.0739 27.4697 25.5649 26.9789C26.0559 26.488 26.3904 25.8626 26.526 25.1817C26.6616 24.5008 26.5923 23.795 26.3268 23.1534C26.0614 22.5119 25.6117 21.9635 25.0346 21.5775C24.4575 21.1915 23.7789 20.9853 23.0846 20.9849L23.0926 20.9839Z" fill="#333333"/>
</svg>
