<svg width="32" height="32" viewBox="0 0 32 32" fill="none" xmlns="http://www.w3.org/2000/svg"><path d="M7.360 14.965 L 7.360 21.930 7.027 21.659 C 6.305 21.073,6.149 20.987,5.816 20.987 C 5.462 20.987,5.246 21.118,4.985 21.496 C 4.786 21.782,4.763 22.225,4.932 22.476 C 4.990 22.562,5.781 23.227,6.690 23.954 C 8.114 25.094,8.353 25.267,8.424 25.206 C 8.470 25.167,9.227 24.560,10.108 23.857 C 11.846 22.469,11.944 22.362,11.877 21.944 C 11.833 21.676,11.608 21.311,11.376 21.135 C 11.216 21.013,11.128 20.987,10.877 20.987 C 10.544 20.987,10.388 21.073,9.667 21.659 L 9.333 21.930 9.333 14.965 L 9.333 8.000 8.347 8.000 L 7.360 8.000 7.360 14.965 M14.187 10.000 L 14.187 10.987 20.160 10.987 L 26.133 10.987 26.133 10.000 L 26.133 9.013 20.160 9.013 L 14.187 9.013 14.187 10.000 M14.187 15.013 L 14.187 16.000 18.667 16.000 L 23.147 16.000 23.147 15.013 L 23.147 14.027 18.667 14.027 L 14.187 14.027 14.187 15.013 M14.187 20.000 L 14.187 21.013 17.173 21.013 L 20.160 21.013 20.160 20.000 L 20.160 18.987 17.173 18.987 L 14.187 18.987 14.187 20.000 " stroke="none" fillRule="evenodd" fill="black"></path></svg>