<svg width="32" height="32" viewBox="0 0 32 32" fill="none" xmlns="http://www.w3.org/2000/svg">
<path d="M13.8359 4.99997H5.99878C5.44649 4.99997 4.99878 5.44768 4.99878 5.99997V13.837H6.99878V8.41418C6.99878 7.5 7 7.5 7 7C7.5 7 8 7 8.41299 6.99997H13.8359V4.99997Z" fill="#4C4C4C"/>
<path d="M26.0001 4.99997H20.163V6.99997H23.5882L17.5685 13.0267L18.9837 14.4399L25.0001 8.41655V11.837H27.0001V5.99997C27.0001 5.44768 26.5523 4.99997 26.0001 4.99997Z" fill="#4C4C4C"/>
<path d="M23.5858 25.0013H18.163V27.0013H26.0001C26.5523 27.0013 27.0001 26.5535 27.0001 26.0013V18.1642H25.0001V23.5871L25 25L23.5858 25.0013Z" fill="#4C4C4C"/>
<path d="M8.4154 25.0013L14.4387 18.9849L13.0255 17.5697L6.99878 23.5895V20.1642H4.99878V26.0013C4.99878 26.5535 5.44649 27.0013 5.99878 27.0013H11.8359V25.0013H8.4154Z" fill="#4C4C4C"/>
</svg>
