<svg width="32" height="32" viewBox="0 0 32 32" fill="none" xmlns="http://www.w3.org/2000/svg">
<path d="M24.9261 9.57141C25.4896 10.3538 25.946 11.2045 26.2856 12.1004V12.1428H23.7142L23.7141 9.57143L24.9261 9.57141Z" fill="#4C4C4C"/>
<path d="M23.7141 8.1582V9.57143H21.1429L21.1426 7L22.3247 7C22.8158 7.34511 23.2808 7.73194 23.7141 8.1582Z" fill="#4C4C4C"/>
<path fillRule="evenodd" clip-rule="evenodd" d="M21.1429 12.1428V9.57143H18.5714V7H16V9.57143H18.5714L18.5714 12.1428L16 12.1429V14.7143L18.5714 14.7143V17.2857L16 17.2857V19.8571H18.5714L18.5714 22.4285L16 22.4286V25H18.5714L18.5714 22.4285H21.1429L21.1426 25H22.3246C22.8187 24.6528 23.2834 24.2654 23.7141 23.8418V22.4286L24.9261 22.4285C25.0012 22.3243 25.0745 22.2186 25.1461 22.1114C25.6108 21.416 25.9922 20.6736 26.2856 19.8995V19.8571L23.7141 19.8571V17.2857L26.2856 17.2857V14.7143L23.7141 14.7143L23.7142 12.1428H21.1429ZM21.1429 14.7143L18.5714 14.7143V12.1428H21.1429V14.7143ZM21.1429 17.2857L18.5714 17.2857L18.5714 19.8571H21.1426L21.1429 22.4285L23.7141 22.4286V19.8571H21.1426L21.1429 17.2857ZM21.1429 17.2857V14.7143H23.7141V17.2857H21.1429Z" fill="#4C4C4C"/>
<path fillRule="evenodd" clip-rule="evenodd" d="M23.4831 21.0003C24.4721 19.5202 25 17.7801 25 16C25 13.6133 24.052 11.3243 22.3644 9.63652C20.6769 7.94873 18.3881 7.00036 16.0014 7C14.2213 6.99973 12.4811 7.52735 11.0009 8.51612C9.52063 9.50489 8.36687 10.9104 7.68548 12.5549C7.00408 14.1994 6.82566 16.0091 7.17277 17.755C7.51989 19.5009 8.37695 21.1047 9.63557 22.3635C10.8942 23.6223 12.4978 24.4796 14.2437 24.827C15.9896 25.1743 17.7992 24.9962 19.4438 24.315C21.0885 23.6339 22.4941 22.4803 23.4831 21.0003ZM25.1461 22.1114C26.3548 20.3025 27 18.1757 27 16C27 13.0829 25.8413 10.2853 23.7788 8.22241C21.7162 6.15956 18.9187 5.00044 16.0017 5C13.826 4.99967 11.6991 5.64454 9.88993 6.85303C8.08077 8.06153 6.67062 9.77938 5.8378 11.7893C5.00499 13.7993 4.78691 16.0111 5.21117 18.145C5.63542 20.2789 6.68293 22.239 8.22125 23.7776C9.75956 25.3161 11.7196 26.3639 13.8534 26.7885C15.9872 27.2131 18.1991 26.9953 20.2091 26.1628C22.2192 25.3303 23.9373 23.9204 25.1461 22.1114Z" fill="#4C4C4C"/>
</svg>
