<svg width="32" height="32" viewBox="0 0 32 32" fill="none" xmlns="http://www.w3.org/2000/svg">
<path d="M10.6623 25.0664C10.5677 25.062 10.4748 25.039 10.3891 24.9986C10.3034 24.9582 10.2264 24.9013 10.1627 24.8312C10.099 24.761 10.0498 24.6789 10.0179 24.5897C9.98599 24.5005 9.97199 24.4059 9.97673 24.3112V7.68882C9.97473 7.55975 10.0051 7.43225 10.065 7.31794C10.125 7.20363 10.2126 7.10615 10.3199 7.03442C10.4221 6.96819 10.5413 6.93296 10.6631 6.93296C10.7849 6.93296 10.9041 6.96819 11.0063 7.03442L24.0351 15.3464C24.1406 15.4197 24.2267 15.5174 24.2862 15.6313C24.3457 15.7451 24.3768 15.8716 24.3768 16C24.3768 16.1284 24.3457 16.255 24.2862 16.3688C24.2267 16.4826 24.1406 16.5803 24.0351 16.6536L11.0063 24.9648C10.9038 25.0311 10.7844 25.0658 10.6623 25.0664Z" fill="#333333"/>
</svg>
