<svg width="32" height="32" viewBox="0 0 32 32" fill="none" xmlns="http://www.w3.org/2000/svg">
<g clip-path="url(#clip0_3333_64895)">
<mask id="mask0_3333_64895" style="mask-type:luminance" maskUnits="userSpaceOnUse" x="0" y="0" width="32" height="32">
<path d="M32 0H0V32H32V0Z" fill="white"/>
</mask>
<g mask="url(#mask0_3333_64895)">
<path d="M13 2.75V3.5H8.25C7.65326 3.5 7.08096 3.73705 6.65901 4.15901C6.23705 4.58097 6 5.15326 6 5.75V27.75C6 28.3467 6.23705 28.919 6.65901 29.341C7.08096 29.7629 7.65326 30 8.25 30H23.75C24.3467 30 24.919 29.7629 25.341 29.341C25.7629 28.919 26 28.3467 26 27.75V5.75C26 5.15326 25.7629 4.58097 25.341 4.15901C24.919 3.73705 24.3467 3.5 23.75 3.5H19V2.75C19 2.55109 18.921 2.36032 18.7803 2.21967C18.6397 2.07902 18.4489 2 18.25 2H13.75C13.5511 2 13.3603 2.07902 13.2197 2.21967C13.079 2.36032 13 2.55109 13 2.75ZM23 27H9V6.5H23V27Z" fill="#4C4C4C"/>
<path d="M16.355 9.338C16.4383 9.19247 16.5731 9.08336 16.7328 9.03211C16.8925 8.98085 17.0655 8.99116 17.218 9.061C17.3733 9.14183 17.4979 9.2714 17.5725 9.42982C17.6471 9.58824 17.6676 9.76677 17.631 9.938L16.721 14.608H20.011C20.1978 14.6238 20.3774 14.6873 20.5326 14.7925C20.6877 14.8977 20.8132 15.0411 20.897 15.2088C20.9807 15.3765 21.0199 15.563 21.0108 15.7502C21.0017 15.9374 20.9446 16.1192 20.845 16.278L16.008 24.633C15.9289 24.7812 15.7982 24.8953 15.6406 24.9535C15.483 25.0118 15.3095 25.0102 15.153 24.949C14.9934 24.8771 14.8617 24.7548 14.7783 24.6009C14.6948 24.447 14.6642 24.27 14.691 24.097L15.303 19.388H11.991C11.8019 19.3704 11.6206 19.3042 11.4647 19.1957C11.3088 19.0873 11.1837 18.9404 11.1014 18.7692C11.0192 18.598 10.9826 18.4085 10.9953 18.219C11.008 18.0296 11.0696 17.8466 11.174 17.688L16.355 9.338Z" fill="#49BB99"/>
</g>
</g>
<defs>
<clipPath id="clip0_3333_64895">
<rect width="32" height="32" fill="white"/>
</clipPath>
</defs>
</svg>
