<svg width="32" height="32" viewBox="0 0 32 32" fill="none" xmlns="http://www.w3.org/2000/svg"><path d="M20.400 2.728 C 19.853 2.788,18.965 3.008,18.453 3.210 C 15.873 4.226,14.075 6.373,13.483 9.143 C 13.326 9.881,13.315 11.306,13.460 12.080 C 14.065 15.288,16.430 17.732,19.661 18.486 C 20.234 18.620,20.389 18.634,21.307 18.635 C 22.161 18.636,22.408 18.617,22.880 18.515 C 26.123 17.815,28.482 15.456,29.182 12.213 C 29.283 11.741,29.302 11.494,29.302 10.640 C 29.301 9.722,29.287 9.567,29.153 8.994 C 28.795 7.460,28.119 6.199,27.077 5.120 C 25.336 3.318,22.913 2.450,20.400 2.728 M26.933 9.256 C 27.653 9.619,27.621 10.700,26.879 11.084 C 26.431 11.316,25.841 11.163,25.567 10.744 C 25.351 10.415,25.380 9.892,25.632 9.561 C 25.924 9.179,26.509 9.042,26.933 9.256 M24.239 12.182 C 24.654 12.499,24.750 13.108,24.455 13.554 C 24.175 13.976,23.573 14.108,23.125 13.846 C 22.787 13.648,22.642 13.387,22.641 12.978 C 22.640 12.698,22.664 12.616,22.800 12.424 C 23.034 12.093,23.256 11.990,23.686 12.012 C 23.976 12.026,24.074 12.057,24.239 12.182 M27.119 12.182 C 27.871 12.756,27.468 13.973,26.526 13.973 C 25.703 13.973,25.231 13.100,25.682 12.415 C 25.881 12.113,26.140 11.996,26.566 12.014 C 26.858 12.027,26.953 12.055,27.119 12.182 M11.200 14.617 C 10.975 14.711,6.092 19.621,5.967 19.879 C 5.873 20.074,5.867 20.131,5.920 20.295 C 5.998 20.531,6.306 20.836,6.512 20.881 C 6.893 20.965,6.881 20.974,9.581 18.275 C 12.421 15.434,12.369 15.498,12.165 15.076 C 11.972 14.679,11.543 14.474,11.200 14.617 M21.412 15.008 C 22.087 15.523,21.852 16.606,21.025 16.791 C 20.597 16.888,20.102 16.661,19.915 16.285 C 19.760 15.972,19.780 15.536,19.962 15.261 C 20.174 14.940,20.426 14.822,20.859 14.841 C 21.151 14.853,21.246 14.882,21.412 15.008 M24.286 15.004 C 24.559 15.213,24.662 15.433,24.664 15.817 C 24.667 16.219,24.488 16.526,24.150 16.699 C 23.324 17.120,22.412 16.310,22.741 15.447 C 22.909 15.007,23.227 14.814,23.739 14.839 C 24.027 14.853,24.128 14.883,24.286 15.004 M13.602 18.616 C 13.530 18.647,12.887 19.252,12.174 19.961 C 10.756 21.372,10.611 21.564,10.720 21.895 C 10.798 22.131,11.106 22.436,11.312 22.481 C 11.675 22.561,11.750 22.505,13.181 21.074 C 14.719 19.536,14.759 19.478,14.565 19.076 C 14.373 18.679,13.942 18.474,13.602 18.616 M18.400 20.217 C 18.175 20.311,13.292 25.221,13.167 25.479 C 13.073 25.674,13.067 25.731,13.120 25.895 C 13.198 26.131,13.506 26.436,13.712 26.481 C 14.093 26.565,14.081 26.574,16.781 23.875 C 19.621 21.034,19.569 21.098,19.365 20.676 C 19.172 20.279,18.743 20.074,18.400 20.217 M8.802 23.416 C 8.730 23.447,8.087 24.052,7.374 24.761 C 5.956 26.172,5.811 26.364,5.920 26.695 C 5.998 26.931,6.306 27.236,6.512 27.281 C 6.875 27.361,6.950 27.305,8.381 25.874 C 9.919 24.336,9.959 24.278,9.765 23.876 C 9.573 23.479,9.142 23.274,8.802 23.416 " fill="#4C4C4C" stroke="none" fillRule="evenodd"></path></svg>