<svg width="32" height="32" viewBox="0 0 32 32" fill="none" xmlns="http://www.w3.org/2000/svg">
<g clip-path="url(#clip0_44_868)">
<path d="M20.999 27.504H11.999C11.7338 27.504 11.4794 27.3986 11.2919 27.2111C11.1044 27.0236 10.999 26.7692 10.999 26.504V25.504C10.999 25.2388 11.1044 24.9844 11.2919 24.7969C11.4794 24.6094 11.7338 24.504 11.999 24.504H15.749V21.742C15.7483 21.657 15.719 21.5746 15.6659 21.5083C15.6127 21.4419 15.5388 21.3953 15.456 21.376C14.2954 21.0958 13.2057 20.5775 12.256 19.854C11.0643 19.0311 10.209 17.8063 9.84699 16.404C9.83295 16.3385 9.80132 16.2782 9.7555 16.2294C9.70969 16.1805 9.65143 16.1452 9.58699 16.127C8.46275 15.7589 7.52618 14.9672 6.97599 13.92C6.33712 12.8026 6.00039 11.5381 5.99899 10.251V9.504C5.99926 9.30499 6.0785 9.11423 6.21931 8.97361C6.36012 8.83298 6.55099 8.754 6.74999 8.754H9.56999C9.59468 8.754 9.61913 8.74914 9.64194 8.73969C9.66475 8.73024 9.68547 8.71639 9.70293 8.69893C9.72039 8.68148 9.73423 8.66075 9.74368 8.63794C9.75313 8.61513 9.75799 8.59069 9.75799 8.566V8.004C9.75799 7.60617 9.91603 7.22464 10.1973 6.94334C10.4786 6.66203 10.8602 6.504 11.258 6.504H17.634C16.8052 7.49237 16.2656 8.69052 16.0748 9.9662C15.8839 11.2419 16.0493 12.5455 16.5526 13.7331C17.0559 14.9207 17.8776 15.9462 18.9269 16.6964C19.9762 17.4465 21.2124 17.8921 22.499 17.984C22.0323 18.7081 21.4376 19.3411 20.744 19.852C19.7938 20.5748 18.7043 21.093 17.544 21.374C17.4607 21.3925 17.3863 21.4388 17.333 21.5054C17.2797 21.572 17.2508 21.6547 17.251 21.74V24.504H20.999C21.2642 24.504 21.5186 24.6094 21.7061 24.7969C21.8936 24.9844 21.999 25.2388 21.999 25.504V26.504C21.999 26.7692 21.8936 27.0236 21.7061 27.2111C21.5186 27.3986 21.2642 27.504 20.999 27.504ZM7.69099 10.25C7.6653 10.2501 7.6399 10.2554 7.61634 10.2657C7.59278 10.2759 7.57156 10.2908 7.55396 10.3095C7.53637 10.3283 7.52277 10.3504 7.51401 10.3745C7.50525 10.3987 7.5015 10.4244 7.50299 10.45C7.53525 11.5102 7.8561 12.5416 8.43099 13.433C8.69984 13.8438 9.05384 14.192 9.46899 14.454C9.49727 14.4703 9.52934 14.4789 9.56199 14.4789C9.59464 14.4789 9.62672 14.4703 9.65499 14.454C9.68357 14.4376 9.70737 14.414 9.72404 14.3856C9.7407 14.3572 9.74965 14.3249 9.74999 14.292C9.74999 13.567 9.74999 12.676 9.74999 11.782V10.438C9.74999 10.3881 9.73019 10.3403 9.69493 10.3051C9.65967 10.2698 9.61185 10.25 9.56199 10.25H7.69099Z" fill="#333333"/>
<path d="M21.75 16H24.25V12.247H27.998C27.985 12.234 27.998 9.747 27.998 9.747H24.248V6.007C24.236 5.994 21.748 6.007 21.748 6.007V9.747H17.998V12.247H21.748L21.75 16Z" fill="#333333"/>
</g>
<defs>
<clipPath id="clip0_44_868">
<rect width="32" height="32" fill="white"/>
</clipPath>
</defs>
</svg>
