<svg width="32" height="32" viewBox="0 0 32 32" fill="none" xmlns="http://www.w3.org/2000/svg">
<g clip-path="url(#clip0_44_872)">
<path d="M12.001 27.5C11.7358 27.5 11.4814 27.3946 11.2939 27.2071C11.1064 27.0196 11.001 26.7652 11.001 26.5V25.5C11.001 25.2348 11.1064 24.9804 11.2939 24.7929C11.4814 24.6054 11.7358 24.5 12.001 24.5H15.751V21.741C15.7508 21.6558 15.7218 21.5732 15.6685 21.5067C15.6153 21.4403 15.5411 21.3938 15.458 21.375C14.2974 21.0948 13.2077 20.5765 12.258 19.853C11.0662 19.0286 10.2108 17.803 9.84801 16.4C9.83386 16.3346 9.80219 16.2743 9.75639 16.2255C9.7106 16.1767 9.65239 16.1413 9.58801 16.123C7.40101 15.522 6.00101 12.806 6.00101 10.25V9.5C6.00101 9.40142 6.02044 9.30382 6.05819 9.21276C6.09595 9.1217 6.15128 9.03897 6.22103 8.96932C6.29078 8.89966 6.37358 8.84444 6.46469 8.8068C6.5558 8.76917 6.65343 8.74987 6.75201 8.75H9.57201C9.62179 8.74974 9.66945 8.72985 9.70465 8.69465C9.73985 8.65945 9.75974 8.61178 9.76001 8.562V8.008C9.76001 7.61018 9.91804 7.22864 10.1993 6.94734C10.4807 6.66604 10.8622 6.508 11.26 6.508L21.746 6.5C22.1438 6.5 22.5254 6.65804 22.8067 6.93934C23.088 7.22064 23.246 7.60218 23.246 8V8.566C23.2463 8.61569 23.2662 8.66325 23.3014 8.69829C23.3367 8.73333 23.3843 8.753 23.434 8.753H26.251C26.4493 8.75326 26.6395 8.83195 26.78 8.9719C26.9205 9.11185 27 9.30169 27.001 9.5V10.25C27.001 12.806 25.594 15.521 23.413 16.125C23.3485 16.1431 23.2902 16.1784 23.2444 16.2272C23.1985 16.2761 23.167 16.3365 23.153 16.402C22.7888 17.8035 21.9336 19.0278 20.743 19.852C19.7928 20.5748 18.7033 21.093 17.543 21.374C17.4598 21.3926 17.3855 21.439 17.3323 21.5056C17.279 21.5721 17.25 21.6548 17.25 21.74V24.5H21.001C21.2662 24.5 21.5206 24.6054 21.7081 24.7929C21.8956 24.9804 22.001 25.2348 22.001 25.5V26.5C22.001 26.7652 21.8956 27.0196 21.7081 27.2071C21.5206 27.3946 21.2662 27.5 21.001 27.5H12.001ZM23.25 10.438C23.25 11.638 23.25 13.049 23.25 14.292C23.2502 14.3248 23.259 14.3571 23.2755 14.3855C23.292 14.4139 23.3156 14.4375 23.344 14.454C23.3723 14.4703 23.4044 14.4789 23.437 14.4789C23.4697 14.4789 23.5017 14.4703 23.53 14.454C23.9456 14.1907 24.2993 13.8407 24.567 13.428C25.1455 12.5379 25.4685 11.5061 25.501 10.445C25.5025 10.4194 25.4988 10.3937 25.49 10.3695C25.4812 10.3454 25.4676 10.3233 25.45 10.3046C25.4324 10.2858 25.4112 10.2709 25.3877 10.2607C25.3641 10.2504 25.3387 10.2451 25.313 10.245H23.438C23.4129 10.245 23.388 10.25 23.3649 10.2598C23.3417 10.2695 23.3208 10.2838 23.3033 10.3018C23.2857 10.3198 23.272 10.3411 23.2629 10.3645C23.2537 10.3879 23.2493 10.4129 23.25 10.438ZM7.55601 10.307C7.53826 10.3252 7.5244 10.3468 7.51529 10.3705C7.50618 10.3943 7.502 10.4196 7.50301 10.445C7.53387 11.5052 7.85484 12.5365 8.43101 13.427C8.69971 13.8396 9.05407 14.1895 9.47001 14.453C9.49828 14.4693 9.53036 14.4779 9.56301 14.4779C9.59566 14.4779 9.62773 14.4693 9.65601 14.453C9.68459 14.4366 9.70839 14.4131 9.72505 14.3846C9.74172 14.3562 9.75066 14.3239 9.75101 14.291C9.75101 13.197 9.75101 11.724 9.75101 10.437C9.75101 10.4123 9.74614 10.3879 9.7367 10.3651C9.72725 10.3422 9.7134 10.3215 9.69594 10.3041C9.67849 10.2866 9.65776 10.2728 9.63495 10.2633C9.61214 10.2539 9.5877 10.249 9.56301 10.249H7.69101C7.66575 10.249 7.64075 10.2541 7.61754 10.2641C7.59433 10.2741 7.57339 10.2887 7.55601 10.307Z" fill="#333333"/>
</g>
<defs>
<clipPath id="clip0_44_872">
<rect width="32" height="32" fill="white"/>
</clipPath>
</defs>
</svg>
