<svg width="32" height="32" viewBox="0 0 32 32" fill="none" xmlns="http://www.w3.org/2000/svg">
<g clip-path="url(#clip0_44_636)">
<path d="M17.792 27.1067L6.64267 27.1067C6.25354 27.1065 5.86925 27.0205 5.51723 26.8547C5.16521 26.6888 4.85416 26.4473 4.60629 26.1473C4.35842 25.8474 4.17986 25.4964 4.08335 25.1194C3.98684 24.7425 3.97477 24.3488 4.048 23.9667L5.39733 16.9267C5.48772 16.4573 5.73859 16.0341 6.10691 15.7295C6.47523 15.4249 6.93806 15.258 7.416 15.2573L25.8253 15.2573L24.6387 21.448C24.3319 23.0394 23.4808 24.4744 22.2316 25.5069C20.9823 26.5394 19.4127 27.105 17.792 27.1067ZM9.21333 22.1693L8.844 24.144L17.1227 24.144L17.492 22.1693L9.21333 22.1693ZM9.972 18.2187L9.6 20.1907L17.88 20.1907L18.2493 18.216L9.972 18.2187Z" fill="#333333"/>
<path d="M25.8253 15.356L21.7867 15.356L23.9613 3.99999H28L25.8253 15.356Z" fill="#333333"/>
</g>
<defs>
<clipPath id="clip0_44_636">
<rect width="32" height="32" fill="white"/>
</clipPath>
</defs>
</svg>
