<svg width="32" height="32" viewBox="0 0 32 32" fill="none" xmlns="http://www.w3.org/2000/svg">
<path fillRule="evenodd" clip-rule="evenodd" d="M25.8064 15.356H25.8253L28 3.99998H23.9613L21.8056 15.2573H7.416C6.93805 15.258 6.47523 15.4249 6.10691 15.7295C5.73859 16.0341 5.48772 16.4573 5.39733 16.9267L4.048 23.9667C3.97477 24.3488 3.98684 24.7425 4.08335 25.1194C4.17986 25.4964 4.35842 25.8474 4.60629 26.1473C4.85416 26.4473 5.16521 26.6888 5.51723 26.8547C5.86925 27.0205 6.25354 27.1065 6.64266 27.1067H17.792C18.0958 27.1063 18.3977 27.0862 18.6961 27.0469C18.2501 26.1258 18 25.0921 18 24C18 20.134 21.134 17 25 17C25.1641 17 25.3268 17.0056 25.4881 17.0168L25.8064 15.356ZM8.844 24.144L9.21333 22.1693H17.492L17.1227 24.144H8.844ZM9.6 20.1907L9.972 18.2187L18.2493 18.216L17.88 20.1907H9.6ZM26.252 28.9988H23.752L23.75 25.2458H20V22.7458H23.75V19.0058C23.75 19.0058 26.238 18.9928 26.25 19.0058V22.7458H30C30 22.7458 29.987 25.2328 30 25.2458H26.252V28.9988Z" fill="#4C4C4C"/>
</svg>
