<svg width="32" height="32" viewBox="0 0 32 32" fill="none" xmlns="http://www.w3.org/2000/svg">
<g clip-path="url(#clip0_44_864)">
<path d="M19.967 27.4H13.835C14.0704 26.4116 14.0528 25.3798 13.784 24.4H19.284L19.658 22.4H12.8C12.2436 21.6522 11.5194 21.0455 10.6857 20.6286C9.85199 20.2118 8.93209 19.9965 8 20C7.60893 20 7.21877 20.0378 6.835 20.113L7.414 17.09C7.5057 16.6147 7.75991 16.1861 8.13304 15.8778C8.50616 15.5694 8.97495 15.4005 9.459 15.4H24.035L26.214 4H30.304L28.104 15.5H28.085L26.901 21.67C26.5903 23.2816 25.7284 24.7349 24.4632 25.7804C23.198 26.826 21.6083 27.3986 19.967 27.4ZM12.047 18.4L11.672 20.4H20.056L20.431 18.4H12.047Z" fill="#333333"/>
<path d="M8 30C10.2091 30 12 28.2091 12 26C12 23.7909 10.2091 22 8 22C5.79086 22 4 23.7909 4 26C4 28.2091 5.79086 30 8 30Z" fill="#333333"/>
</g>
<defs>
<clipPath id="clip0_44_864">
<rect width="32" height="32" fill="white"/>
</clipPath>
</defs>
</svg>
