<svg width="32" height="32" viewBox="0 0 32 32" fill="none" xmlns="http://www.w3.org/2000/svg">
<g clip-path="url(#clip0_44_859)">
<path d="M27.344 10.011L21.978 4.644C21.5613 4.23063 20.9979 3.99909 20.411 4H10.222C9.63326 4.00185 9.06915 4.23654 8.65285 4.65285C8.23654 5.06916 8.00185 5.63326 8 6.222V21.778C8.00185 22.3667 8.23654 22.9308 8.65285 23.3472C9.06915 23.7635 9.63326 23.9982 10.222 24H25.778C26.3667 23.9982 26.9308 23.7635 27.3472 23.3472C27.7635 22.9308 27.9982 22.3667 28 21.778V11.589C27.9998 11.2958 27.9418 11.0054 27.8292 10.7346C27.7167 10.4639 27.5518 10.2179 27.344 10.011ZM12.444 8.444H20.222V10.667H12.444V8.444ZM23.556 19.556H12.444V17.333H23.556V19.556ZM23.556 15.112H12.444V12.889H23.556V15.112Z" fill="#333333"/>
<path d="M21.778 27.998H6.22199C5.63257 27.9977 5.06735 27.7636 4.65038 27.347C4.23341 26.9304 3.99878 26.3654 3.99799 25.776V10.22C4.00284 9.67062 4.20916 9.14212 4.57781 8.73476C4.94647 8.3274 5.45181 8.06951 5.99799 8.01001V23.332C5.99878 24.0391 6.28002 24.717 6.78001 25.217C7.28 25.717 7.9579 25.9982 8.66499 25.999H23.988C23.9283 26.545 23.6703 27.0501 23.2629 27.4186C22.8556 27.787 22.3272 27.9932 21.778 27.998Z" fill="#333333"/>
</g>
<defs>
<clipPath id="clip0_44_859">
<rect width="32" height="32" fill="white"/>
</clipPath>
</defs>
</svg>
