<svg width="32" height="32" viewBox="0 0 32 32" fill="none" xmlns="http://www.w3.org/2000/svg">
<path d="M25.4994 24.0003H10.4994C10.1703 24.0055 9.84369 23.9432 9.53962 23.8173C9.23555 23.6914 8.96049 23.5046 8.73138 23.2683C8.49482 23.0395 8.30785 22.7645 8.1821 22.4603C8.05635 22.1562 7.99449 21.8294 8.00038 21.5003V6.50032C7.99522 6.17126 8.0575 5.84463 8.18339 5.54056C8.30928 5.23649 8.49612 4.96143 8.73238 4.73232C8.96134 4.49587 9.23638 4.30891 9.54048 4.183C9.84459 4.05709 10.1713 3.99492 10.5004 4.00032H25.5004C25.8294 3.99516 26.1561 4.05744 26.4601 4.18333C26.7642 4.30922 27.0393 4.49606 27.2684 4.73232C27.5048 4.96128 27.6918 5.23632 27.8177 5.54042C27.9436 5.84453 28.0058 6.17123 28.0004 6.50032V21.5003C28.0004 22.1634 27.737 22.7992 27.2682 23.2681C26.7993 23.7369 26.1624 24.0003 25.4994 24.0003ZM14.2504 18.3753C14.2481 18.2103 14.1815 18.0527 14.0648 17.936C13.948 17.8192 13.7904 17.7527 13.6254 17.7503H12.3754C12.2103 17.7527 12.0527 17.8192 11.936 17.936C11.8193 18.0527 11.7527 18.2103 11.7504 18.3753V20.8753C11.7527 21.0404 11.8193 21.198 11.936 21.3147C12.0527 21.4314 12.2103 21.498 12.3754 21.5003H13.6254C13.7904 21.498 13.948 21.4314 14.0648 21.3147C14.1815 21.198 14.2481 21.0404 14.2504 20.8753V18.3753ZM19.2504 13.3753C19.2481 13.2103 19.1815 13.0527 19.0648 12.936C18.948 12.8192 18.7904 12.7527 18.6254 12.7503H17.3744C17.2093 12.7527 17.0517 12.8192 16.935 12.936C16.8183 13.0527 16.7517 13.2103 16.7494 13.3753V20.8753C16.7517 21.0404 16.8183 21.198 16.935 21.3147C17.0517 21.4314 17.2093 21.498 17.3744 21.5003H18.6244C18.7894 21.498 18.947 21.4314 19.0638 21.3147C19.1805 21.198 19.2471 21.0404 19.2494 20.8753V13.3753H19.2504ZM24.2504 7.12532C24.2481 6.96029 24.1815 6.80267 24.0648 6.68596C23.948 6.56925 23.7904 6.50265 23.6254 6.50032H22.3754C22.2103 6.50265 22.0527 6.56925 21.936 6.68596C21.8193 6.80267 21.7527 6.96029 21.7504 7.12532V20.8753C21.7527 21.0404 21.8193 21.198 21.936 21.3147C22.0527 21.4314 22.2103 21.498 22.3754 21.5003H23.6254C23.7904 21.498 23.948 21.4314 24.0648 21.3147C24.1815 21.198 24.2481 21.0404 24.2504 20.8753V7.12532Z" fill="#4C4C4C"/>
<path d="M21.778 27.998H6.22199C5.63257 27.9977 5.06735 27.7636 4.65038 27.347C4.23341 26.9304 3.99878 26.3654 3.99799 25.776V10.22C4.00284 9.67062 4.20916 9.14212 4.57781 8.73476C4.94647 8.3274 5.45181 8.06951 5.99799 8.01001V23.332C5.99878 24.0391 6.28002 24.717 6.78001 25.217C7.28 25.717 7.9579 25.9982 8.66499 25.999H23.988C23.9283 26.545 23.6703 27.0501 23.2629 27.4186C22.8556 27.787 22.3272 27.9932 21.778 27.998Z" fill="#4C4C4C"/>
</svg>
