<svg width="32" height="32" viewBox="0 0 32 32" fill="none" xmlns="http://www.w3.org/2000/svg">
<path d="M21.375 29.498V23.498H15.375V20.498H21.375V14.498H24.375V20.498H30.375V23.498H24.375V29.498H21.375ZM4.34671 27.998C3.72416 27.9977 3.12765 27.7508 2.68753 27.3105C2.24741 26.8702 2.00003 26.2729 2.00003 25.6503V8.46283C2.00056 7.84062 2.24845 7.2445 2.68851 6.80463C3.12857 6.36475 3.7245 6.11739 4.34671 6.11713H8.2471C8.2471 5.28832 8.57609 4.49419 9.16214 3.90814C9.74819 3.32209 10.5433 2.99213 11.3721 2.99213C12.2009 2.99213 12.996 3.32209 13.5821 3.90814C14.1681 4.49419 14.4971 5.28832 14.4971 6.11713H18.4063C19.0275 6.11871 19.6227 6.36682 20.0616 6.80658C20.5004 7.24634 20.7468 7.84158 20.7471 8.46283V13.0038C20.5053 13.0346 20.283 13.1528 20.1221 13.3359C19.9612 13.5189 19.8726 13.7543 19.8731 13.998V18.998H14.8731C14.6079 18.998 14.3536 19.1034 14.166 19.291C13.9785 19.4785 13.8731 19.7328 13.8731 19.998V21.7519H10.2032C10.1519 21.7515 10.1012 21.762 10.0537 21.7812C10.0063 21.8004 9.96328 21.8273 9.92679 21.8632C9.89029 21.8992 9.86081 21.943 9.84085 21.9902C9.82089 22.0373 9.80999 22.0874 9.8096 22.1386V22.9218C9.80947 22.9735 9.82017 23.0245 9.83987 23.0722C9.85958 23.1199 9.88832 23.1646 9.92484 23.2011C9.96135 23.2376 10.005 23.2654 10.0528 23.2851C10.1005 23.3048 10.1515 23.3145 10.2032 23.3144H13.8731V24.0038C13.8731 24.2691 13.9785 24.5233 14.166 24.7109C14.3536 24.8984 14.6079 25.0038 14.8731 25.0038H19.8731V27.4863C19.4579 27.8222 18.9403 28.0072 18.4063 28.0078L4.34671 27.998ZM5.51175 22.5253C5.51116 22.7573 5.57964 22.9844 5.70804 23.1777C5.83644 23.3709 6.01932 23.5219 6.23343 23.6113C6.44754 23.7006 6.68351 23.7243 6.91116 23.6796C7.13882 23.6349 7.34826 23.5229 7.51273 23.3593C7.67719 23.1957 7.78915 22.9871 7.83499 22.7597C7.88083 22.5323 7.85779 22.2965 7.76956 22.082C7.68133 21.8674 7.53147 21.684 7.3389 21.5546C7.14633 21.4252 6.91953 21.356 6.68753 21.3554C6.37665 21.3565 6.07961 21.4797 5.85941 21.6992C5.6392 21.9186 5.51386 22.2164 5.51175 22.5273V22.5253ZM5.51175 17.8437C5.51234 18.0754 5.58185 18.3016 5.71097 18.4941C5.84009 18.6865 6.02312 18.8354 6.23734 18.9238C6.45155 19.0122 6.68683 19.0355 6.91409 18.9902C7.14135 18.9448 7.35081 18.8337 7.51468 18.6699C7.67854 18.506 7.78964 18.2975 7.83499 18.0703C7.88035 17.843 7.85797 17.6067 7.76956 17.3925C7.68115 17.1783 7.53134 16.9943 7.3389 16.8652C7.14646 16.7361 6.91927 16.6685 6.68753 16.6679C6.53269 16.6674 6.37947 16.6967 6.23636 16.7558C6.09324 16.8149 5.96387 16.902 5.85452 17.0117C5.74518 17.1213 5.65837 17.2512 5.59964 17.3945C5.54091 17.5377 5.51082 17.6908 5.51175 17.8456V17.8437ZM9.81155 17.4433V18.2265C9.81142 18.2781 9.82212 18.3292 9.84183 18.3769C9.86153 18.4246 9.89027 18.4673 9.92679 18.5038C9.96331 18.5404 10.007 18.5701 10.0547 18.5898C10.1025 18.6095 10.1535 18.6192 10.2051 18.6191H17.2383C17.3415 18.6175 17.4393 18.5754 17.5117 18.5019C17.5842 18.4284 17.625 18.3297 17.625 18.2265V17.4433C17.6248 17.3407 17.5843 17.2424 17.5117 17.1699C17.4392 17.0973 17.3409 17.0568 17.2383 17.0566H10.2051C10.1535 17.0563 10.1025 17.0662 10.0547 17.0859C10.007 17.1055 9.96325 17.1333 9.92679 17.1699C9.89032 17.2064 9.86137 17.251 9.84183 17.2988C9.82228 17.3466 9.81213 17.3975 9.81253 17.4492L9.81155 17.4433ZM5.51175 13.1425C5.51307 13.4536 5.63806 13.753 5.85843 13.9726C6.0788 14.1922 6.37641 14.3141 6.68753 14.3144C6.84188 14.3161 6.99578 14.2867 7.1387 14.2285C7.28163 14.1702 7.41144 14.0857 7.52054 13.9765C7.62964 13.8673 7.7153 13.7367 7.77347 13.5937C7.83164 13.4507 7.86128 13.2969 7.85941 13.1425C7.85941 12.8313 7.73573 12.5325 7.51566 12.3124C7.29558 12.0924 6.99681 11.9687 6.68558 11.9687C6.37435 11.9687 6.07557 12.0924 5.8555 12.3124C5.63543 12.5325 5.51175 12.8313 5.51175 13.1425ZM9.81155 12.7519V13.5351C9.81142 13.5867 9.82212 13.6377 9.84183 13.6855C9.86153 13.7332 9.89027 13.7759 9.92679 13.8124C9.96331 13.849 10.007 13.8787 10.0547 13.8984C10.1025 13.9181 10.1535 13.9278 10.2051 13.9277H17.2383C17.3417 13.9266 17.4402 13.8841 17.5127 13.8105C17.5852 13.7368 17.6256 13.6385 17.625 13.5351V12.7519C17.6248 12.6493 17.5843 12.551 17.5117 12.4785C17.4392 12.4059 17.3409 12.3654 17.2383 12.3652H10.2051C10.1531 12.3649 10.1018 12.3746 10.0537 12.3945C10.0057 12.4144 9.96233 12.4434 9.92581 12.4804C9.88929 12.5174 9.86016 12.5611 9.84085 12.6093C9.82154 12.6576 9.8116 12.7097 9.81253 12.7617L9.81155 12.7519ZM10.2051 6.11517C10.2063 6.34632 10.276 6.572 10.4053 6.76361C10.5346 6.95523 10.7178 7.10371 10.9317 7.19135C11.1456 7.27898 11.3799 7.30162 11.6065 7.2558C11.833 7.20998 12.0411 7.0974 12.2041 6.93353C12.3672 6.76967 12.4778 6.56267 12.5225 6.33588C12.5672 6.10908 12.5438 5.87354 12.4551 5.6601C12.3664 5.44666 12.2167 5.26496 12.0244 5.13666C11.8322 5.00836 11.6062 4.9394 11.375 4.93939C11.2197 4.93885 11.0654 4.96968 10.9219 5.02924C10.7784 5.08879 10.6484 5.1747 10.5391 5.2851C10.4298 5.39549 10.3443 5.52775 10.2862 5.67181C10.2281 5.81588 10.1991 5.96961 10.2012 6.12494L10.2051 6.11517Z" fill="#333333"/>
</svg>
