<svg width="32" height="32" viewBox="0 0 32 32" fill="none" xmlns="http://www.w3.org/2000/svg">
<g clip-path="url(#clip0_44_646)">
<path d="M22.7496 27.9998H9.25036C8.65393 27.9991 8.08213 27.7619 7.6603 27.3402C7.23846 26.9186 7.00102 26.3469 7 25.7504V9.25196C7.00076 8.65536 7.2381 8.08342 7.65996 7.66156C8.08182 7.2397 8.65376 7.00236 9.25036 7.0016H12.9946C12.9946 6.20553 13.3108 5.44206 13.8737 4.87915C14.4366 4.31624 15.2001 4 15.9962 4C16.7922 4 17.5557 4.31624 18.1186 4.87915C18.6815 5.44206 18.9978 6.20553 18.9978 7.0016H22.742C23.0864 7.00043 23.4265 7.07895 23.7356 7.231C24.0447 7.38306 24.3145 7.60454 24.5238 7.87813L20.3678 13H14.8724C14.8232 13 14.7744 13.0097 14.7289 13.0286C14.6834 13.0475 14.6421 13.0751 14.6073 13.11C14.5725 13.1449 14.545 13.1863 14.5262 13.2318C14.5075 13.2773 14.4979 13.3261 14.498 13.3754V14.1281C14.498 14.2274 14.5374 14.3226 14.6077 14.3928C14.6779 14.463 14.7731 14.5025 14.8724 14.5025H19.1437L16.7052 17.5017H14.8724C14.8232 17.5017 14.7744 17.5114 14.7289 17.5303C14.6834 17.5491 14.6421 17.5768 14.6073 17.6117C14.5725 17.6466 14.545 17.6879 14.5262 17.7335C14.5075 17.779 14.4979 17.8278 14.498 17.8771V18.6249C14.4976 18.6744 14.507 18.7235 14.5256 18.7694C14.5443 18.8153 14.5717 18.857 14.6065 18.8922C14.6413 18.9275 14.6827 18.9555 14.7283 18.9747C14.7739 18.9939 14.8229 19.0039 14.8724 19.0042H15.4869L13.8682 20.9915L13.8394 25.4221C13.8384 25.544 13.8615 25.6648 13.9073 25.7777C13.9531 25.8907 14.0208 25.9934 14.1064 26.0801C14.192 26.1668 14.2939 26.2358 14.4063 26.283C14.5186 26.3302 14.6392 26.3548 14.7611 26.3553C14.8289 26.3556 14.8965 26.3482 14.9627 26.3332L19.2915 25.3904L20.8276 23.503H21.6283C21.6778 23.5028 21.7268 23.4929 21.7725 23.4739C21.8181 23.4548 21.8596 23.4269 21.8945 23.3917C21.9293 23.3566 21.9569 23.3149 21.9757 23.2691C21.9944 23.2233 22.0039 23.1742 22.0037 23.1247V22.3759C22.0033 22.2948 21.9767 22.216 21.9278 22.1512L25 18.3705V25.7514C24.9987 26.3477 24.7612 26.9191 24.3394 27.3406C23.9176 27.762 23.3459 27.9991 22.7496 27.9998ZM11.5007 21.627C11.3525 21.6252 11.2053 21.6531 11.0679 21.7089C10.9306 21.7647 10.8057 21.8474 10.7008 21.9521C10.5958 22.0568 10.5128 22.1815 10.4566 22.3187C10.4004 22.4559 10.3722 22.603 10.3736 22.7512C10.3734 22.9737 10.4392 23.1913 10.5626 23.3764C10.6861 23.5615 10.8616 23.7059 11.0671 23.7913C11.2726 23.8766 11.4987 23.8992 11.717 23.856C11.9353 23.8129 12.1359 23.706 12.2934 23.5488C12.4509 23.3917 12.5583 23.1914 12.6021 22.9732C12.6458 22.7551 12.6238 22.5289 12.539 22.3232C12.4541 22.1175 12.3102 21.9416 12.1254 21.8176C11.9406 21.6937 11.7232 21.6274 11.5007 21.627ZM11.5007 17.1273C11.3525 17.1253 11.2054 17.153 11.068 17.2088C10.9307 17.2645 10.8058 17.3471 10.7008 17.4517C10.5958 17.5564 10.5128 17.6809 10.4566 17.8181C10.4004 17.9553 10.3722 18.1023 10.3736 18.2505C10.3732 18.4731 10.4389 18.6907 10.5622 18.876C10.6855 19.0612 10.861 19.2057 11.0664 19.2912C11.2719 19.3767 11.4981 19.3994 11.7164 19.3564C11.9348 19.3133 12.1354 19.2065 12.2931 19.0494C12.4507 18.8923 12.5582 18.692 12.602 18.4738C12.6458 18.2556 12.6239 18.0294 12.5391 17.8236C12.4543 17.6179 12.3103 17.4419 12.1255 17.318C11.9407 17.194 11.7233 17.1276 11.5007 17.1273ZM11.5007 12.6265C11.3525 12.6246 11.2054 12.6523 11.068 12.708C10.9307 12.7638 10.8058 12.8464 10.7008 12.951C10.5958 13.0556 10.5128 13.1802 10.4566 13.3174C10.4004 13.4546 10.3722 13.6016 10.3736 13.7498C10.3741 14.0485 10.4931 14.3348 10.7044 14.5459C10.9156 14.757 11.202 14.8757 11.5007 14.8759C11.7991 14.8759 12.0853 14.7574 12.2963 14.5464C12.5074 14.3354 12.6259 14.0492 12.6259 13.7508C12.6259 13.4523 12.5074 13.1661 12.2963 12.9551C12.0853 12.7441 11.7991 12.6265 11.5007 12.6265ZM15.9976 5.8745C15.7753 5.87507 15.5581 5.9415 15.3735 6.06539C15.1889 6.18929 15.0451 6.3651 14.9603 6.57064C14.8755 6.77618 14.8535 7.00223 14.8971 7.22025C14.9407 7.43827 15.0479 7.63849 15.2052 7.79564C15.3625 7.95279 15.5628 8.05981 15.7809 8.10321C15.9989 8.14661 16.2249 8.12443 16.4304 8.03948C16.6359 7.95453 16.8116 7.81061 16.9353 7.62589C17.059 7.44117 17.1253 7.22393 17.1257 7.0016C17.1258 6.85347 17.0967 6.70677 17.04 6.56991C16.9834 6.43304 16.9003 6.3087 16.7955 6.204C16.6907 6.0993 16.5663 6.0163 16.4294 5.95976C16.2925 5.90322 16.1457 5.87425 15.9976 5.8745Z" fill="#333333"/>
<path d="M24.5166 10.147L27.6879 12.7129L18.3312 24.2752L15.8037 24.8266C15.724 24.8447 15.6413 24.8445 15.5616 24.826C15.482 24.8075 15.4077 24.7712 15.3441 24.7198C15.2806 24.6684 15.2295 24.6032 15.1948 24.5292C15.1601 24.4552 15.1426 24.3743 15.1437 24.2926L15.1617 21.7081L24.5166 10.147ZM28.6603 9.79021L27.169 8.58636C26.9459 8.40611 26.6603 8.32179 26.3751 8.35189C26.0898 8.38199 25.8282 8.52406 25.6476 8.7469L24.5166 10.147L27.6879 12.7129L28.8189 11.3128C28.9992 11.0897 29.0835 10.8041 29.0534 10.5189C29.0233 10.2336 28.8812 9.972 28.6584 9.79142L28.6603 9.79021Z" fill="#333333"/>
</g>
<defs>
<clipPath id="clip0_44_646">
<rect width="32" height="32" fill="white"/>
</clipPath>
</defs>
</svg>
