<svg width="32" height="32" viewBox="0 0 32 32" fill="none" xmlns="http://www.w3.org/2000/svg">
<g clip-path="url(#clip0_44_651)">
<path d="M23 28.8867H9C8.38138 28.886 7.78834 28.6393 7.35091 28.2018C6.91348 27.7644 6.66737 27.172 6.66666 26.5534V9.44401C6.66737 8.82539 6.91348 8.2317 7.35091 7.79427C7.78834 7.35684 8.38138 7.11138 9 7.11068H12.8893C12.8904 6.286 13.2183 5.49589 13.8014 4.91276C14.3846 4.32963 15.1753 4.00106 16 4C16.8251 4.00071 17.6164 4.3293 18.1999 4.91276C18.7833 5.49622 19.1113 6.28684 19.112 7.11198H23.0013C23.6199 7.11268 24.213 7.35814 24.6504 7.79557C25.0878 8.23301 25.3339 8.82669 25.3346 9.44531V26.5547C25.3336 27.1733 25.0874 27.7659 24.6497 28.2031C24.2121 28.6403 23.6186 28.8864 23 28.8867ZM12.1068 17.9531L10.6908 19.3685L12.8145 21.4935L14.2305 22.9089L15.6478 21.4961L21.3092 15.8294L19.8945 14.4128L14.2305 20.0768L12.1068 17.9531ZM15.9987 5.95312C15.6897 5.95348 15.3936 6.07711 15.1751 6.29557C14.9567 6.51404 14.8337 6.80953 14.8333 7.11849C14.8333 7.4278 14.956 7.72504 15.1745 7.94401C15.3929 8.16298 15.6894 8.28575 15.9987 8.28646C16.3084 8.28611 16.6053 8.16298 16.8242 7.94401C17.0432 7.72504 17.1663 7.42815 17.1667 7.11849C17.1674 6.96477 17.1377 6.81281 17.0794 6.67057C17.0211 6.52834 16.9352 6.39937 16.8268 6.29036C16.7184 6.18136 16.5898 6.09427 16.4479 6.03516C16.306 5.97605 16.1537 5.94549 16 5.94531L15.9987 5.95312Z" fill="#333333"/>
</g>
<defs>
<clipPath id="clip0_44_651">
<rect width="32" height="32" fill="white"/>
</clipPath>
</defs>
</svg>
