<svg width="32" height="32" viewBox="0 0 32 32" fill="none" xmlns="http://www.w3.org/2000/svg">
<g clip-path="url(#clip0_44_653)">
<path d="M16 28C13.6266 28 11.3066 27.2962 9.33316 25.9776C7.35977 24.6591 5.8217 22.7849 4.91345 20.5922C4.0052 18.3995 3.76756 15.9867 4.23058 13.6589C4.6936 11.3311 5.83649 9.19295 7.51472 7.51472C9.19295 5.83649 11.3311 4.6936 13.6589 4.23058C15.9867 3.76756 18.3995 4.0052 20.5922 4.91345C22.7849 5.8217 24.6591 7.35977 25.9776 9.33316C27.2962 11.3066 28 13.6266 28 16C27.9968 19.1816 26.7315 22.232 24.4818 24.4818C22.232 26.7315 19.1816 27.9968 16 28ZM19.5235 22.1905C19.1708 22.1888 18.8285 22.3095 18.5548 22.532C18.2812 22.7545 18.0932 23.065 18.0228 23.4106C17.9525 23.7562 18.0042 24.1154 18.1691 24.4272C18.3341 24.7389 18.602 24.9838 18.9273 25.1201C19.2526 25.2564 19.6151 25.2756 19.9529 25.1746C20.2908 25.0735 20.5832 24.8584 20.7802 24.5659C20.9773 24.2734 21.0667 23.9216 21.0334 23.5705C21.0001 23.2194 20.846 22.8907 20.5975 22.6405C20.4563 22.4977 20.288 22.3844 20.1026 22.3072C19.9172 22.2299 19.7184 22.1903 19.5175 22.1905H19.5235ZM15.2185 22.1905C14.8662 22.1886 14.5241 22.309 14.2506 22.5311C13.9771 22.7532 13.7891 23.0633 13.7186 23.4085C13.6482 23.7538 13.6996 24.1127 13.8642 24.4243C14.0288 24.7358 14.2964 24.9806 14.6213 25.1169C14.9462 25.2532 15.3083 25.2726 15.6459 25.1718C15.9835 25.071 16.2757 24.8563 16.4727 24.5641C16.6697 24.272 16.7592 23.9206 16.7261 23.5698C16.693 23.219 16.5392 22.8906 16.291 22.6405C16.1499 22.498 15.9819 22.3848 15.7968 22.3076C15.6117 22.2303 15.4131 22.1905 15.2125 22.1905H15.2185ZM23.7685 17.9485C23.4164 17.9485 23.0753 18.0706 22.8032 18.2941C22.5311 18.5175 22.345 18.8284 22.2765 19.1738C22.2081 19.5192 22.2615 19.8776 22.4278 20.1879C22.5941 20.4982 22.8629 20.7412 23.1884 20.8755C23.5138 21.0098 23.8758 21.027 24.2125 20.9242C24.5493 20.8215 24.8399 20.605 25.0349 20.3119C25.2299 20.0187 25.3172 19.667 25.2818 19.3167C25.2464 18.9664 25.0906 18.6393 24.841 18.391C24.6991 18.2501 24.5308 18.1386 24.3457 18.0629C24.1607 17.9872 23.9625 17.9489 23.7625 17.95L23.7685 17.9485ZM19.45 17.95C19.0977 17.9481 18.7556 18.0685 18.4821 18.2906C18.2086 18.5127 18.0206 18.8228 17.9501 19.168C17.8797 19.5133 17.9311 19.8722 18.0957 20.1838C18.2603 20.4953 18.5279 20.7401 18.8528 20.8764C19.1777 21.0127 19.5398 21.0321 19.8774 20.9313C20.215 20.8305 20.5072 20.6158 20.7042 20.3236C20.9012 20.0315 20.9907 19.6801 20.9576 19.3293C20.9245 18.9785 20.7707 18.6501 20.5225 18.4C20.3821 18.2581 20.2152 18.1453 20.0311 18.0681C19.8471 17.9909 19.6496 17.9507 19.45 17.95ZM23.686 13.7095C23.4861 13.7096 23.2882 13.7495 23.1038 13.8267C22.9195 13.904 22.7523 14.0171 22.612 14.1595C22.4577 14.298 22.3333 14.4666 22.2465 14.655C22.1597 14.8433 22.1122 15.0473 22.1071 15.2546C22.1019 15.462 22.1392 15.6681 22.2166 15.8605C22.2939 16.0529 22.4098 16.2275 22.557 16.3735C22.7043 16.5195 22.8798 16.6339 23.0729 16.7097C23.2659 16.7854 23.4724 16.821 23.6796 16.8141C23.8869 16.8072 24.0905 16.7581 24.2781 16.6697C24.4657 16.5813 24.6333 16.4555 24.7705 16.3C24.9832 16.0869 25.1279 15.8155 25.1864 15.5202C25.2448 15.2249 25.2144 14.9188 25.099 14.6408C24.9836 14.3627 24.7883 14.1251 24.5379 13.958C24.2874 13.7909 23.9931 13.7018 23.692 13.702L23.686 13.7095Z" fill="#333333"/>
</g>
<defs>
<clipPath id="clip0_44_653">
<rect width="32" height="32" fill="white"/>
</clipPath>
</defs>
</svg>
